<svg width="33" height="33" viewBox="0 0 33 33" fill="none" xmlns="http://www.w3.org/2000/svg">
<g id="mingcute:add-fill" clip-path="url(#clip0_6_18)">
<g id="Group">
<path id="Vector" d="M14.5 27.1666C14.5 27.6971 14.7107 28.2058 15.0858 28.5809C15.4608 28.9559 15.9695 29.1666 16.5 29.1666C17.0304 29.1666 17.5391 28.9559 17.9142 28.5809C18.2893 28.2058 18.5 27.6971 18.5 27.1666V18.5H27.1666C27.6971 18.5 28.2058 18.2893 28.5809 17.9142C28.9559 17.5391 29.1666 17.0304 29.1666 16.5C29.1666 15.9695 28.9559 15.4608 28.5809 15.0858C28.2058 14.7107 27.6971 14.5 27.1666 14.5H18.5V5.83331C18.5 5.30288 18.2893 4.79417 17.9142 4.4191C17.5391 4.04403 17.0304 3.83331 16.5 3.83331C15.9695 3.83331 15.4608 4.04403 15.0858 4.4191C14.7107 4.79417 14.5 5.30288 14.5 5.83331V14.5H5.83331C5.30288 14.5 4.79417 14.7107 4.4191 15.0858C4.04403 15.4608 3.83331 15.9695 3.83331 16.5C3.83331 17.0304 4.04403 17.5391 4.4191 17.9142C4.79417 18.2893 5.30288 18.5 5.83331 18.5H14.5V27.1666Z" fill="white"/>
</g>
</g>
<defs>
<clipPath id="clip0_6_18">
<rect width="32" height="32" fill="white" transform="translate(0.5 0.5)"/>
</clipPath>
</defs>
</svg>
