<svg width="32" height="32" viewBox="0 0 32 32" fill="none" xmlns="http://www.w3.org/2000/svg">
<path d="M28.748 7.09069L24.9093 3.25202C24.7237 3.06604 24.5032 2.91858 24.2604 2.81813C24.0177 2.71767 23.7574 2.66621 23.4947 2.66669C22.9813 2.66669 22.4707 2.86136 22.08 3.25202L17.3333 8.00002H5.33333C4.97971 8.00002 4.64057 8.1405 4.39052 8.39055C4.14048 8.6406 4 8.97974 4 9.33336V26.6667C4 27.0203 4.14048 27.3595 4.39052 27.6095C4.64057 27.8595 4.97971 28 5.33333 28H22.6667C23.0203 28 23.3594 27.8595 23.6095 27.6095C23.8595 27.3595 24 27.0203 24 26.6667V14.6667L28.748 9.91869C29.1387 9.52802 29.3333 9.01602 29.3333 8.50402C29.3333 7.99202 29.1387 7.48136 28.748 7.09069ZM15.3333 19.5627L12.4373 16.6667L20.828 8.27602L23.724 11.172L15.3333 19.5627ZM11.9187 17.7774L14.26 20.0814L12 20L11.9187 17.7774ZM21.3333 25.3334H6.66667V10.6667H14.6667L10.4267 14.9067C10.036 15.2974 9.78933 15.9894 9.588 16.6254C9.37467 17.292 9.33333 18.0334 9.33333 18.5854V22.6667H13.4147C13.9667 22.6667 14.892 22.5334 15.5093 22.28C16.128 22.0267 16.704 21.8174 17.0933 21.4267L21.3333 17.3334V25.3334ZM24.6667 10.2294L21.7707 7.33336L23.4947 5.60936L26.3893 8.50536L24.6667 10.2294Z" fill="white"/>
</svg>
