<?xml version="1.0" encoding="UTF-8" standalone="no"?>
<!DOCTYPE svg PUBLIC "-//W3C//DTD SVG 1.1//EN" "http://www.w3.org/Graphics/SVG/1.1/DTD/svg11.dtd">
<svg xmlns="http://www.w3.org/2000/svg" version="1.1" viewBox="0.00 0.00 1280.00 1280.00">
<g stroke-width="2.00" fill="none" stroke-linecap="butt">
<path stroke="#92a7cf" vector-effect="non-scaling-stroke" d="
  M 290.02 547.18
  Q 289.81 568.00 289.73 588.75
  Q 289.50 645.92 289.47 703.45
  C 289.46 707.72 293.08 708.09 296.51 707.94
  Q 308.78 707.42 326.37 707.65
  C 331.62 707.72 331.92 703.17 331.92 699.25
  Q 331.83 626.35 331.93 553.47"
/>
<path stroke="#9cc1e9" vector-effect="non-scaling-stroke" d="
  M 331.93 553.47
  Q 331.58 499.26 331.27 445.08
  C 331.22 436.35 331.64 427.31 331.04 418.93
  Q 330.67 413.64 325.60 414.92
  C 319.60 416.44 312.93 418.51 307.97 422.06
  Q 290.24 434.74 290.30 456.50
  Q 290.40 490.88 290.21 525.27
  C 290.17 532.58 289.83 539.88 290.02 547.18"
/>
<path stroke="#2f69b8" vector-effect="non-scaling-stroke" d="
  M 331.93 553.47
  Q 331.24 551.48 329.87 549.96
  Q 329.51 549.56 328.98 549.57
  L 320.52 549.70
  Q 320.07 549.71 319.68 549.49
  Q 318.51 548.87 316.99 549.15
  Q 315.98 549.34 315.02 549.19
  Q 314.45 549.09 313.90 549.27
  Q 312.07 549.85 310.19 549.03
  Q 309.73 548.84 309.25 548.96
  Q 307.81 549.34 306.38 548.77
  Q 305.96 548.60 305.53 548.77
  Q 303.76 549.52 301.97 548.74
  Q 301.55 548.56 301.16 548.78
  Q 300.49 549.15 299.88 548.65
  Q 299.53 548.37 299.09 548.45
  Q 297.92 548.66 296.91 548.09
  Q 296.11 547.64 295.26 547.40
  Q 293.19 546.81 291.19 546.01
  Q 290.74 545.83 290.72 546.32
  Q 290.67 548.45 290.02 547.18"
/>
<path stroke="#92a7cf" vector-effect="non-scaling-stroke" d="
  M 371.98 543.96
  Q 371.92 624.36 371.76 704.75
  Q 371.75 708.97 375.82 709.58
  Q 381.92 710.50 400.67 712.21
  C 403.64 712.48 406.25 710.92 406.25 707.75
  C 406.26 684.46 406.51 660.94 406.02 637.51
  Q 405.50 612.88 405.62 588.25
  Q 405.72 566.11 405.91 543.89"
/>
<path stroke="#9cc1e9" vector-effect="non-scaling-stroke" d="
  M 405.91 543.89
  Q 405.85 520.80 405.77 497.50
  Q 405.76 495.01 405.04 493.00
  A 2.84 2.83 78.1 0 0 402.19 491.14
  Q 398.72 491.36 395.70 492.44
  Q 378.93 498.43 373.89 514.55
  Q 372.57 518.76 372.36 527.10
  Q 372.15 535.53 371.98 543.96"
/>
<path stroke="#2f69b8" vector-effect="non-scaling-stroke" d="
  M 405.91 543.89
  Q 394.09 544.47 390.99 544.52
  Q 387.92 544.58 383.70 544.30
  Q 382.57 544.22 380.79 544.42
  Q 379.33 544.59 377.85 544.49
  Q 377.00 544.43 375.69 544.62
  Q 374.47 544.78 373.37 544.49
  Q 372.87 544.36 372.73 544.85
  Q 372.41 546.00 372.41 544.81
  Q 372.42 544.05 371.98 543.96"
/>
<path stroke="#92a7cf" vector-effect="non-scaling-stroke" d="
  M 222.65 536.79
  Q 222.97 557.65 222.54 578.50
  Q 222.32 588.89 222.28 598.54
  Q 222.08 652.43 222.14 706.49
  C 222.14 710.08 222.83 713.53 227.25 713.04
  Q 238.49 711.80 249.74 710.72
  Q 254.33 710.28 254.34 705.85
  C 254.42 664.57 254.62 603.04 253.76 538.58"
/>
<path stroke="#9cc1e9" vector-effect="non-scaling-stroke" d="
  M 253.76 538.58
  Q 253.73 518.14 253.75 497.82
  C 253.76 494.54 253.10 490.86 248.59 491.96
  C 236.15 494.98 225.65 504.82 223.70 517.49
  Q 222.37 526.15 222.65 536.79"
/>
<path stroke="#2f69b8" vector-effect="non-scaling-stroke" d="
  M 253.76 538.58
  Q 253.39 537.79 253.04 537.38
  Q 252.64 536.89 252.02 536.95
  Q 241.89 537.91 235.50 537.59
  Q 231.02 537.37 226.17 536.23
  Q 224.80 535.91 224.18 537.03
  Q 223.94 537.47 223.66 537.05
  Q 223.22 536.40 222.65 536.79"
/>
<path stroke="#92a7cf" vector-effect="non-scaling-stroke" d="
  M 187.58 564.08
  C 175.59 569.27 170.24 577.19 170.23 590.42
  Q 170.18 655.18 170.25 717.87
  C 170.25 720.58 173.47 721.41 175.79 720.93
  Q 183.33 719.37 189.52 718.74
  C 193.60 718.33 196.61 716.89 196.64 712.51
  Q 197.08 651.34 196.41 588.50
  Q 196.32 579.58 196.02 568.46
  C 195.85 561.92 192.79 561.82 187.58 564.08"
/>
<path stroke="#92a7cf" vector-effect="non-scaling-stroke" d="
  M 442.44 576.85
  Q 439.88 582.45 439.86 587.50
  Q 439.81 606.37 439.95 625.78
  C 440.04 637.85 439.16 650.21 439.13 662.35
  Q 439.06 688.25 438.99 711.85
  C 438.98 715.51 440.45 718.13 444.47 718.53
  Q 452.61 719.33 459.80 721.37
  C 463.42 722.39 465.84 720.05 465.91 716.44
  Q 466.04 709.96 466.12 703.75
  C 466.34 686.97 465.82 670.99 465.75 654.74
  Q 465.65 631.59 465.72 610.25
  Q 465.80 587.27 465.63 567.26
  C 465.57 560.06 457.14 564.02 453.66 565.86
  Q 445.50 570.18 442.44 576.85"
/>
<path stroke="#92a7cf" vector-effect="non-scaling-stroke" d="
  M 528.70 631.79
  L 528.78 666.90"
/>
<path stroke="#8e9cc7" vector-effect="non-scaling-stroke" d="
  M 528.78 666.90
  L 528.78 719.32
  A 0.41 0.41 0.0 0 0 529.39 719.68
  L 554.55 705.30
  A 1.32 1.32 0.0 0 0 555.22 704.15
  L 555.21 667.72"
/>
<path stroke="#92a7cf" vector-effect="non-scaling-stroke" d="
  M 555.21 667.72
  L 555.11 650.24
  Q 555.10 648.39 556.18 649.89
  L 564.54 661.64"
/>
<path stroke="#8e9cc7" vector-effect="non-scaling-stroke" d="
  M 564.54 661.64
  L 587.60 693.43
  A 1.48 1.47 -18.0 0 0 588.79 694.03
  L 604.53 694.06
  A 1.69 1.67 17.8 0 0 605.89 693.37
  L 635.54 652.58"
/>
<path stroke="#92a7cf" vector-effect="non-scaling-stroke" d="
  M 635.54 652.58
  L 637.26 650.09
  Q 638.28 648.61 638.48 650.39
  Q 638.55 651.00 638.45 651.79"
/>
<path stroke="#8e9cc7" vector-effect="non-scaling-stroke" d="
  M 638.45 651.79
  L 638.43 704.70
  A 0.36 0.36 0.0 0 0 638.79 705.06
  L 664.77 705.07
  Q 665.69 705.07 665.69 704.15
  L 665.70 652.25"
/>
<path stroke="#92a7cf" vector-effect="non-scaling-stroke" d="
  M 665.70 652.25
  L 665.69 634.74"
/>
<path stroke="#9cc1e9" vector-effect="non-scaling-stroke" d="
  M 665.69 634.74
  L 665.67 617.28
  A 0.95 0.94 90.0 0 0 664.73 616.33
  L 635.57 616.25
  A 1.75 1.74 17.6 0 0 634.15 616.98
  L 621.00 635.25"
/>
<path stroke="#92a7cf" vector-effect="non-scaling-stroke" d="
  M 621.00 635.25
  L 610.18 650.16"
/>
<path stroke="#8e9cc7" vector-effect="non-scaling-stroke" d="
  M 610.18 650.16
  L 597.24 668.03
  A 0.54 0.54 0.0 0 1 596.37 668.03
  L 591.02 660.67"
/>
<path stroke="#92a7cf" vector-effect="non-scaling-stroke" d="
  M 591.02 660.67
  L 567.33 628.12"
/>
<path stroke="#9cc1e9" vector-effect="non-scaling-stroke" d="
  M 567.33 628.12
  Q 563.90 623.15 560.26 617.79
  Q 559.24 616.29 556.75 616.28
  Q 542.94 616.18 529.21 616.41
  A 0.45 0.44 -0.0 0 0 528.77 616.84
  L 528.70 631.79"
/>
<path stroke="#2f69b8" vector-effect="non-scaling-stroke" d="
  M 567.33 628.12
  L 566.37 630.70
  Q 566.20 631.16 565.83 630.85
  Q 565.72 630.76 565.58 630.74
  A 1.17 1.14 27.4 0 0 564.72 631.00
  Q 563.82 631.75 562.70 631.87
  Q 556.42 632.51 549.65 632.38
  Q 547.16 632.34 544.28 632.79
  Q 541.62 633.20 539.30 632.45
  C 537.44 631.84 535.73 632.49 533.97 631.70
  Q 533.48 631.49 533.01 631.75
  Q 532.48 632.04 532.09 631.62
  Q 531.95 631.47 531.78 631.39
  Q 531.50 631.26 531.29 631.49
  A 0.34 0.34 0.0 0 1 530.74 631.41
  L 530.45 630.87
  A 0.51 0.50 -20.3 0 0 529.90 630.62
  L 529.56 630.69
  A 0.35 0.35 0.0 0 0 529.32 631.18
  Q 529.44 631.43 529.32 631.65
  Q 529.25 631.79 529.10 631.85
  Q 528.92 631.92 528.70 631.79"
/>
<path stroke="#214497" vector-effect="non-scaling-stroke" d="
  M 591.02 660.67
  Q 579.99 663.09 576.25 662.59
  Q 574.21 662.32 572.15 662.34
  Q 570.82 662.34 568.44 661.77
  Q 566.59 661.32 564.54 661.64"
/>
<path stroke="#214497" vector-effect="non-scaling-stroke" d="
  M 555.21 667.72
  Q 555.08 665.63 553.45 666.01
  Q 552.51 666.23 551.63 666.48
  Q 550.67 666.76 549.79 666.82
  Q 540.77 667.38 536.94 667.03
  Q 534.69 666.83 532.25 666.39
  Q 531.48 666.25 528.78 666.90"
/>
<path stroke="#214497" vector-effect="non-scaling-stroke" d="
  M 665.70 652.25
  Q 651.93 653.20 638.45 651.79"
/>
<path stroke="#214497" vector-effect="non-scaling-stroke" d="
  M 635.54 652.58
  Q 634.14 651.17 632.65 651.59
  Q 630.84 652.10 630.77 652.11
  Q 624.96 652.61 618.39 651.92
  Q 616.30 651.70 614.31 651.24
  C 613.57 651.06 612.72 651.29 611.97 651.44
  Q 610.77 651.68 610.18 650.16"
/>
<path stroke="#2f69b8" vector-effect="non-scaling-stroke" d="
  M 665.69 634.74
  Q 664.35 636.61 662.93 635.96
  Q 662.48 635.75 662.01 635.85
  Q 660.03 636.24 658.00 636.16
  Q 647.00 635.72 636.00 635.93
  Q 633.47 635.98 626.65 635.39
  Q 626.49 635.38 626.35 635.31
  Q 626.22 635.25 626.20 635.08
  Q 626.18 634.70 625.80 634.74
  L 621.00 635.25"
/>
<path stroke="#92a7cf" vector-effect="non-scaling-stroke" d="
  M 684.15 643.47
  L 684.18 659.03"
/>
<path stroke="#8e9cc7" vector-effect="non-scaling-stroke" d="
  M 684.18 659.03
  L 684.17 719.55
  A 0.55 0.55 0.0 0 0 684.99 720.03
  L 710.69 705.46
  A 1.34 1.33 -15.2 0 0 711.37 704.28
  L 711.35 680.08
  A 0.40 0.39 90.0 0 1 711.74 679.68
  L 764.21 679.64
  A 0.57 0.57 0.0 0 1 764.78 680.21
  L 764.75 704.52
  A 0.52 0.51 0.0 0 0 765.27 705.03
  L 791.56 705.07
  A 0.59 0.59 0.0 0 0 792.15 704.48
  L 792.18 661.38"
/>
<path stroke="#92a7cf" vector-effect="non-scaling-stroke" d="
  M 792.18 661.38
  L 792.19 646.93"
/>
<path stroke="#9cc1e9" vector-effect="non-scaling-stroke" d="
  M 792.19 646.93
  L 792.20 637.70
  A 4.25 4.24 22.4 0 0 790.92 634.64
  Q 782.12 626.04 773.85 617.73
  Q 772.40 616.27 770.00 616.27
  Q 739.13 616.27 708.25 616.26
  C 705.46 616.26 703.59 616.63 701.73 618.47
  Q 693.34 626.77 685.19 634.90
  A 3.33 3.31 68.1 0 0 684.22 637.20
  L 684.15 643.47"
/>
<path stroke="#2f69b8" vector-effect="non-scaling-stroke" d="
  M 792.19 646.93
  Q 791.43 645.42 789.32 646.32
  Q 789.11 646.40 789.03 646.18
  Q 788.96 645.98 788.74 646.00
  Q 779.69 646.83 770.62 646.91
  Q 770.52 646.91 769.65 646.76
  Q 769.03 646.65 767.88 646.75
  Q 766.43 646.87 764.73 646.94"
/>
<path stroke="#9cc1e9" vector-effect="non-scaling-stroke" d="
  M 764.73 646.94
  L 764.77 636.96
  A 0.71 0.71 0.0 0 0 764.05 636.25
  L 712.21 636.27
  Q 711.33 636.27 711.34 637.15
  L 711.42 643.79"
/>
<path stroke="#2f69b8" vector-effect="non-scaling-stroke" d="
  M 711.42 643.79
  Q 710.40 641.68 704.40 643.09
  Q 704.13 643.15 704.08 643.43
  Q 704.04 643.60 703.86 643.62
  Q 694.94 644.50 686.11 642.88
  Q 685.69 642.81 685.38 643.10
  Q 685.22 643.25 685.00 643.28
  Q 684.72 643.33 684.70 643.04
  Q 684.70 642.99 684.68 642.95
  Q 684.42 642.31 684.31 643.00
  Q 684.27 643.25 684.15 643.47"
/>
<path stroke="#214497" vector-effect="non-scaling-stroke" d="
  M 792.18 661.38
  Q 790.91 659.56 788.35 659.91
  Q 784.90 660.39 784.58 660.38
  Q 770.88 660.35 757.14 659.45"
/>
<path stroke="#214497" vector-effect="non-scaling-stroke" d="
  M 713.06 659.34
  Q 712.26 659.94 711.31 659.47
  Q 711.13 659.39 710.93 659.43
  Q 710.79 659.46 710.67 659.54
  Q 710.28 659.80 709.80 659.79
  Q 706.27 659.71 701.76 659.95
  Q 698.49 660.12 686.82 659.63
  Q 686.19 659.60 685.87 660.16
  Q 685.73 660.42 685.53 660.23
  Q 685.23 659.95 685.00 659.59
  Q 684.69 659.09 684.18 659.03"
/>
<path stroke="#92a7cf" vector-effect="non-scaling-stroke" d="
  M 764.73 646.94
  L 764.58 658.54
  Q 764.57 659.05 764.06 659.08
  L 757.14 659.45"
/>
<path stroke="#8e9cc7" vector-effect="non-scaling-stroke" d="
  M 757.14 659.45
  L 713.06 659.34"
/>
<path stroke="#92a7cf" vector-effect="non-scaling-stroke" d="
  M 713.06 659.34
  L 711.96 659.04
  Q 711.45 658.90 711.45 658.36
  L 711.42 643.79"
/>
<path stroke="#92a7cf" vector-effect="non-scaling-stroke" d="
  M 808.01 642.17
  Q 807.57 642.75 807.46 643.09
  Q 807.38 643.32 807.52 643.52
  Q 817.21 656.78 826.42 669.04
  A 1.70 1.70 0.0 0 0 827.78 669.72
  L 894.10 669.69"
/>
<path stroke="#8e9cc7" vector-effect="non-scaling-stroke" d="
  M 894.10 669.69
  L 900.39 677.00
  Q 900.82 677.49 900.41 677.98
  Q 898.22 680.64 895.71 683.37
  C 894.53 684.67 893.11 684.62 891.50 684.63
  Q 861.11 684.73 828.90 684.63
  A 4.29 4.29 0.0 0 0 825.82 685.91
  Q 817.39 694.43 808.18 703.77
  Q 807.78 704.17 807.57 704.71
  A 0.26 0.26 0.0 0 0 807.81 705.06
  L 909.00 705.10
  Q 910.40 705.10 911.23 703.98
  L 930.40 678.11
  A 1.07 1.07 0.0 0 0 930.39 676.82
  L 924.96 669.70"
/>
<path stroke="#92a7cf" vector-effect="non-scaling-stroke" d="
  M 924.96 669.70
  L 911.87 652.22
  A 2.90 2.90 0.0 0 0 909.55 651.06
  L 844.35 651.06
  A 2.07 2.07 0.0 0 1 842.78 650.34
  L 837.51 644.36"
/>
<path stroke="#9cc1e9" vector-effect="non-scaling-stroke" d="
  M 837.51 644.36
  Q 838.85 640.34 843.23 636.54
  A 1.22 1.21 24.5 0 1 844.02 636.25
  L 909.14 636.23
  A 3.79 3.76 -67.5 0 0 911.82 635.11
  L 929.90 616.98
  Q 930.58 616.30 929.62 616.30
  L 828.26 616.26
  A 2.24 2.24 0.0 0 0 826.45 617.18
  L 808.01 642.17"
/>
<path stroke="#2f69b8" vector-effect="non-scaling-stroke" d="
  M 837.51 644.36
  Q 826.64 645.82 815.75 644.63
  Q 813.21 644.36 808.01 642.17"
/>
<path stroke="#214497" vector-effect="non-scaling-stroke" d="
  M 924.96 669.70
  Q 924.68 669.73 924.62 670.02
  Q 924.49 670.71 924.12 670.12
  Q 924.00 669.93 923.77 669.91
  A 0.41 0.40 5.9 0 1 923.39 669.45
  Q 923.47 668.90 922.97 668.58
  A 0.81 0.81 0.0 0 0 922.06 668.60
  Q 921.57 668.95 921.00 668.66
  Q 920.53 668.41 914.66 669.02
  Q 912.45 669.25 910.15 669.29
  Q 907.71 669.32 905.48 669.60
  Q 903.48 669.85 901.53 669.91
  Q 899.49 669.98 897.55 670.62
  Q 897.11 670.77 896.74 670.48
  Q 895.38 669.41 894.10 669.69"
/>
<path stroke="#92a7cf" vector-effect="non-scaling-stroke" d="
  M 945.34 647.19
  L 945.33 662.57"
/>
<path stroke="#8e9cc7" vector-effect="non-scaling-stroke" d="
  M 945.33 662.57
  L 945.33 719.45
  A 0.58 0.58 0.0 0 0 946.19 719.96
  L 971.75 705.55
  A 1.47 1.47 0.0 0 0 972.50 704.27
  L 972.50 680.28
  Q 972.50 679.69 973.08 679.69
  L 1025.46 679.67
  Q 1025.99 679.67 1025.99 680.21
  L 1025.95 704.49
  A 0.54 0.54 0.0 0 0 1026.49 705.03
  L 1052.90 705.08
  A 0.56 0.56 0.0 0 0 1053.46 704.52
  L 1053.46 653.13"
/>
<path stroke="#92a7cf" vector-effect="non-scaling-stroke" d="
  M 1053.46 653.13
  L 1053.45 640.01"
/>
<path stroke="#9cc1e9" vector-effect="non-scaling-stroke" d="
  M 1053.45 640.01
  C 1053.81 638.09 1053.66 636.21 1052.23 634.80
  Q 1043.82 626.53 1035.89 618.55
  Q 1033.58 616.23 1030.20 616.23
  Q 998.42 616.29 967.18 616.27
  A 4.66 4.62 -66.9 0 0 963.90 617.61
  L 946.38 634.78
  A 3.51 3.47 -22.4 0 0 945.33 637.27
  L 945.34 647.19"
/>
<path stroke="#2f69b8" vector-effect="non-scaling-stroke" d="
  M 1053.45 640.01
  Q 1038.73 640.83 1034.25 640.95
  C 1031.85 641.02 1030.11 639.68 1027.21 640.96
  Q 1026.77 641.15 1026.51 640.75
  L 1026.02 640.02"
/>
<path stroke="#9cc1e9" vector-effect="non-scaling-stroke" d="
  M 1026.02 640.02
  L 1025.79 636.75
  Q 1025.75 636.26 1025.26 636.26
  L 973.03 636.25
  Q 972.56 636.25 972.56 636.72
  L 972.51 644.16"
/>
<path stroke="#2f69b8" vector-effect="non-scaling-stroke" d="
  M 972.51 644.16
  L 971.51 645.53
  Q 971.23 645.91 970.76 645.97
  Q 959.89 647.20 949.25 645.59
  Q 948.09 645.41 947.12 645.62
  Q 945.28 646.02 945.34 647.19"
/>
<path stroke="#214497" vector-effect="non-scaling-stroke" d="
  M 972.70 659.32
  Q 966.50 659.75 960.00 659.56
  Q 959.43 659.55 958.90 659.75
  Q 958.43 659.93 957.94 659.88
  Q 952.97 659.35 947.98 659.18
  Q 946.36 659.12 945.89 660.00
  Q 945.40 660.89 945.33 662.57"
/>
<path stroke="#92a7cf" vector-effect="non-scaling-stroke" d="
  M 1026.02 640.02
  L 1025.88 653.64"
/>
<path stroke="#8e9cc7" vector-effect="non-scaling-stroke" d="
  M 1025.88 653.64
  L 1025.89 658.41
  A 0.85 0.85 0.0 0 1 1025.04 659.26
  L 972.70 659.32"
/>
<path stroke="#92a7cf" vector-effect="non-scaling-stroke" d="
  M 972.70 659.32
  L 972.51 644.16"
/>
<path stroke="#214497" vector-effect="non-scaling-stroke" d="
  M 1053.46 653.13
  Q 1052.37 652.03 1049.77 652.50
  Q 1046.63 653.08 1046.18 653.11
  Q 1041.28 653.52 1036.36 653.63
  Q 1035.91 653.64 1031.16 653.19
  Q 1028.55 652.95 1025.88 653.64"
/>
<path stroke="#92a7cf" vector-effect="non-scaling-stroke" d="
  M 1072.03 638.49
  L 1072.03 657.56"
/>
<path stroke="#8e9cc7" vector-effect="non-scaling-stroke" d="
  M 1072.03 657.56
  L 1072.05 719.60
  A 0.51 0.51 0.0 0 0 1072.82 720.04
  L 1098.42 705.32
  A 1.64 1.63 75.2 0 0 1099.24 703.90
  L 1099.24 675.99
  A 0.94 0.93 -0.3 0 1 1100.17 675.06
  Q 1124.04 674.94 1145.60 675.07
  C 1147.70 675.08 1149.66 674.92 1151.37 676.46
  C 1153.75 678.60 1158.10 681.98 1158.10 685.29
  Q 1158.09 694.73 1158.08 704.34
  A 0.71 0.71 0.0 0 0 1158.79 705.05
  L 1184.95 705.09
  Q 1185.30 705.09 1185.31 704.74
  Q 1185.74 692.67 1185.17 680.84
  Q 1185.08 679.03 1183.76 677.69
  Q 1177.11 670.94 1170.15 664.25
  A 0.32 0.31 -49.5 0 1 1170.12 663.84
  L 1185.16 643.66
  Q 1185.50 643.21 1185.13 642.79
  L 1183.95 641.46"
/>
<path stroke="#9cc1e9" vector-effect="non-scaling-stroke" d="
  M 1183.95 641.46
  L 1166.12 617.23
  A 2.35 2.34 -17.8 0 0 1164.22 616.26
  L 1072.56 616.29
  A 0.38 0.37 90.0 0 0 1072.19 616.67
  L 1072.03 638.49"
/>
<path stroke="#2b5eb1" vector-effect="non-scaling-stroke" d="
  M 1183.95 641.46
  L 1182.42 643.66
  A 0.98 0.95 -71.5 0 1 1181.61 644.08
  L 1156.14 643.53"
/>
<path stroke="#9cc1e9" vector-effect="non-scaling-stroke" d="
  M 1156.14 643.53
  L 1151.82 637.69
  A 3.57 3.55 71.5 0 0 1148.97 636.26
  L 1099.77 636.26
  Q 1099.28 636.26 1099.27 636.75
  L 1099.24 639.62"
/>
<path stroke="#2f69b8" vector-effect="non-scaling-stroke" d="
  M 1099.24 639.62
  Q 1098.84 638.33 1098.20 638.11
  Q 1097.61 637.91 1097.06 638.20
  Q 1095.48 639.05 1093.88 638.84
  Q 1092.69 638.69 1091.38 638.78
  Q 1088.12 639.01 1083.90 638.94
  Q 1082.93 638.93 1078.21 638.17
  Q 1074.98 637.66 1072.03 638.49"
/>
<path stroke="#8e9cc7" vector-effect="non-scaling-stroke" d="
  M 1156.14 643.53
  Q 1156.76 644.10 1157.10 644.80
  Q 1157.32 645.25 1157.03 645.65
  Q 1154.36 649.31 1151.57 653.12
  Q 1150.38 654.75 1147.75 654.71
  Q 1134.31 654.51 1102.14 654.85"
/>
<path stroke="#92a7cf" vector-effect="non-scaling-stroke" d="
  M 1102.14 654.85
  L 1099.81 654.41
  Q 1099.35 654.32 1099.34 653.85
  L 1099.24 639.62"
/>
<path stroke="#214497" vector-effect="non-scaling-stroke" d="
  M 1102.14 654.85
  Q 1092.01 656.25 1081.88 656.28
  Q 1080.14 656.28 1078.75 655.89
  Q 1076.94 655.37 1075.20 655.49
  Q 1074.20 655.56 1073.26 655.37
  Q 1072.70 655.25 1072.54 655.80
  L 1072.03 657.56"
/>
<path stroke="#8e9cc7" vector-effect="non-scaling-stroke" d="
  M 531.55 760.34
  Q 518.13 755.73 504.73 751.56
  Q 486.43 745.87 463.52 740.62
  Q 453.51 738.32 443.93 736.65
  Q 428.82 734.02 414.06 731.70
  Q 408.05 730.76 402.85 730.32
  Q 397.27 729.84 391.68 729.12
  Q 383.58 728.08 375.44 727.87
  C 371.88 727.77 368.39 727.12 364.84 726.92
  C 353.04 726.26 341.04 725.70 329.10 725.72
  C 308.22 725.76 287.87 725.53 267.23 727.28
  C 259.02 727.98 250.97 728.20 242.99 729.35
  C 236.55 730.28 229.97 730.30 223.37 731.44
  C 212.36 733.36 200.84 734.83 189.94 737.09
  Q 161.39 743.02 133.24 750.66
  C 126.45 752.51 119.70 755.47 112.49 757.53
  Q 105.95 759.39 95.44 763.49
  Q 93.62 764.20 92.33 765.47
  A 0.95 0.95 0.0 0 0 92.20 766.66
  Q 93.18 768.19 94.56 768.21
  C 117.20 768.45 140.00 768.60 163.25 768.80
  Q 168.60 768.84 172.59 768.74
  C 178.35 768.58 183.95 768.93 189.60 768.68
  C 194.66 768.46 199.83 768.89 205.00 768.89
  Q 241.78 768.88 281.50 768.72
  Q 284.50 768.71 287.50 768.75
  Q 301.20 768.93 315.73 768.84
  Q 333.19 768.73 350.48 768.67
  Q 356.48 768.64 363.25 768.67
  Q 407.40 768.86 452.99 769.00
  Q 463.78 769.04 472.90 768.88
  Q 506.34 768.31 539.35 768.49
  Q 541.01 768.50 542.57 767.36
  A 1.09 1.08 70.3 0 0 543.01 766.41
  Q 542.88 764.71 541.23 764.02
  Q 536.53 762.05 531.55 760.34"
/>
<path stroke="#b5b5b6" vector-effect="non-scaling-stroke" d="
  M 689.71 757.45
  C 693.41 757.66 698.71 758.00 699.31 753.23
  Q 699.81 749.20 699.45 744.01
  Q 699.08 738.68 694.38 738.60
  Q 684.23 738.42 668.69 738.53
  Q 668.01 738.54 668.01 739.21
  L 668.05 768.75
  Q 668.05 769.37 668.68 769.37
  L 673.04 769.32
  A 0.61 0.61 0.0 0 0 673.64 768.71
  L 673.56 758.21
  A 0.73 0.72 -0.4 0 1 674.29 757.48
  L 681.68 757.52
  A 1.65 1.64 67.1 0 1 682.83 757.99
  L 693.22 768.18
  Q 694.35 769.29 695.93 769.32
  L 701.23 769.42
  Q 702.78 769.45 701.60 768.44
  L 689.47 758.03
  Q 688.73 757.39 689.71 757.45"
/>
<path stroke="#b5b5b6" vector-effect="non-scaling-stroke" d="
  M 718.72 756.26
  A 0.58 0.58 0.0 0 1 719.30 755.67
  L 733.42 755.50
  A 0.58 0.58 0.0 0 0 733.99 754.89
  L 733.85 751.84
  A 0.58 0.58 0.0 0 0 733.28 751.28
  L 719.37 751.16
  A 0.58 0.58 0.0 0 1 718.79 750.58
  L 718.71 743.42
  A 0.58 0.58 0.0 0 1 719.29 742.83
  L 742.64 742.87
  A 0.58 0.58 0.0 0 0 743.22 742.30
  L 743.27 739.20
  A 0.58 0.58 0.0 0 0 742.69 738.61
  L 714.05 738.53
  A 0.58 0.58 0.0 0 0 713.47 739.11
  L 713.39 768.70
  A 0.58 0.58 0.0 0 0 713.97 769.28
  L 742.88 769.28
  A 0.58 0.58 0.0 0 0 743.46 768.70
  L 743.46 765.85
  A 0.58 0.58 0.0 0 0 742.88 765.27
  L 719.34 765.32
  A 0.58 0.58 0.0 0 1 718.76 764.74
  L 718.72 756.26"
/>
<path stroke="#b5b5b6" vector-effect="non-scaling-stroke" d="
  M 758.60 762.76
  A 0.51 0.51 0.0 0 1 759.05 762.49
  L 778.85 762.51
  A 0.51 0.51 0.0 0 1 779.30 762.77
  L 782.78 769.09
  A 0.51 0.51 0.0 0 0 783.22 769.35
  L 788.16 769.42
  A 0.51 0.51 0.0 0 0 788.62 768.66
  L 772.12 738.70
  A 0.51 0.51 0.0 0 0 771.66 738.44
  L 766.52 738.54
  A 0.51 0.51 0.0 0 0 766.08 738.81
  L 749.91 768.58
  A 0.51 0.51 0.0 0 0 750.35 769.33
  L 754.77 769.40
  A 0.51 0.51 0.0 0 0 755.23 769.13
  L 758.60 762.76"
/>
<path stroke="#b5b5b6" vector-effect="non-scaling-stroke" d="
  M 827.26 766.05
  A 0.51 0.51 0.0 0 0 826.76 765.50
  L 804.55 765.24
  A 0.51 0.51 0.0 0 1 804.05 764.73
  L 804.03 739.01
  A 0.51 0.51 0.0 0 0 803.52 738.50
  L 798.99 738.49
  A 0.51 0.51 0.0 0 0 798.48 739.00
  L 798.49 768.83
  A 0.51 0.51 0.0 0 0 799.00 769.34
  L 826.55 769.16
  A 0.51 0.51 0.0 0 0 827.06 768.69
  L 827.26 766.05"
/>
<path stroke="#b5b5b6" vector-effect="non-scaling-stroke" d="
  M 864.68 756.36
  A 0.67 0.67 0.0 0 1 865.34 755.68
  L 878.88 755.56
  A 0.67 0.67 0.0 0 0 879.54 754.88
  L 879.50 751.90
  A 0.67 0.67 0.0 0 0 878.83 751.24
  L 865.44 751.22
  A 0.67 0.67 0.0 0 1 864.77 750.57
  L 864.61 743.51
  A 0.67 0.67 0.0 0 1 865.28 742.82
  L 888.47 742.89
  A 0.67 0.67 0.0 0 0 889.14 742.19
  L 889.00 739.20
  A 0.67 0.67 0.0 0 0 888.33 738.56
  L 859.78 738.63
  A 0.67 0.67 0.0 0 0 859.11 739.30
  L 859.07 768.65
  A 0.67 0.67 0.0 0 0 859.74 769.32
  L 888.60 769.24
  A 0.67 0.67 0.0 0 0 889.27 768.57
  L 889.27 765.99
  A 0.67 0.67 0.0 0 0 888.60 765.32
  L 865.41 765.33
  A 0.67 0.67 0.0 0 1 864.74 764.67
  L 864.68 756.36"
/>
<path stroke="#b5b5b6" vector-effect="non-scaling-stroke" d="
  M 906.37 742.96
  L 925.97 742.95
  Q 926.70 742.95 926.67 743.68
  L 926.56 746.25
  Q 926.51 747.56 927.79 747.35
  Q 929.70 747.04 931.13 746.14
  A 1.38 1.37 -17.3 0 0 931.76 744.95
  Q 931.59 738.69 925.79 738.58
  Q 915.93 738.40 906.41 738.57
  Q 901.26 738.67 900.83 743.62
  Q 900.43 748.36 901.21 752.48
  C 901.79 755.57 905.17 756.24 907.79 756.20
  Q 917.05 756.04 926.26 756.08
  A 0.75 0.75 0.0 0 1 927.00 756.82
  L 927.01 764.76
  Q 927.01 765.29 926.49 765.28
  L 905.10 765.28
  Q 904.43 765.28 904.45 764.60
  L 904.57 761.47
  Q 904.62 760.01 903.21 760.40
  L 900.62 761.13
  Q 899.51 761.44 899.49 762.59
  C 899.43 765.53 900.23 769.24 903.92 769.25
  Q 915.28 769.31 927.72 769.26
  C 933.39 769.23 932.23 759.02 931.73 755.83
  C 931.19 752.34 927.47 751.48 924.45 751.49
  Q 915.11 751.54 906.28 751.48
  A 0.77 0.77 0.0 0 1 905.52 750.69
  L 905.69 743.63
  Q 905.71 742.96 906.37 742.96"
/>
<path stroke="#b5b5b6" vector-effect="non-scaling-stroke" d="
  M 953.67 742.97
  A 0.57 0.57 0.0 0 1 954.24 743.54
  L 954.20 768.85
  A 0.57 0.57 0.0 0 0 954.78 769.42
  L 959.06 769.35
  A 0.57 0.57 0.0 0 0 959.62 768.78
  L 959.49 743.53
  A 0.57 0.57 0.0 0 1 960.06 742.96
  L 973.18 742.99
  A 0.57 0.57 0.0 0 0 973.75 742.42
  L 973.76 739.07
  A 0.57 0.57 0.0 0 0 973.19 738.50
  L 940.71 738.51
  A 0.57 0.57 0.0 0 0 940.14 739.07
  L 940.10 742.42
  A 0.57 0.57 0.0 0 0 940.67 743.00
  L 953.67 742.97"
/>
<path stroke="#b5b5b6" vector-effect="non-scaling-stroke" d="
  M 1000.74 762.50
  A 0.49 0.49 0.0 0 1 1001.18 762.77
  L 1004.39 769.09
  A 0.49 0.49 0.0 0 0 1004.83 769.36
  L 1009.94 769.39
  A 0.49 0.49 0.0 0 0 1010.37 768.67
  L 993.93 738.75
  A 0.49 0.49 0.0 0 0 993.50 738.50
  L 988.39 738.45
  A 0.49 0.49 0.0 0 0 987.96 738.71
  L 971.62 768.64
  A 0.49 0.49 0.0 0 0 972.05 769.36
  L 976.53 769.39
  A 0.49 0.49 0.0 0 0 976.96 769.13
  L 980.39 762.74
  A 0.49 0.49 0.0 0 1 980.82 762.48
  L 1000.74 762.50"
/>
<path stroke="#b5b5b6" vector-effect="non-scaling-stroke" d="
  M 1022.33 742.97
  A 0.59 0.59 0.0 0 1 1022.92 743.56
  L 1022.87 768.77
  A 0.59 0.59 0.0 0 0 1023.46 769.36
  L 1027.96 769.33
  A 0.59 0.59 0.0 0 0 1028.55 768.74
  L 1028.44 743.57
  A 0.59 0.59 0.0 0 1 1029.02 742.98
  L 1041.98 742.69
  A 0.59 0.59 0.0 0 0 1042.56 742.08
  L 1042.44 739.17
  A 0.59 0.59 0.0 0 0 1041.86 738.61
  L 1009.60 738.47
  A 0.59 0.59 0.0 0 0 1009.01 739.07
  L 1009.03 742.42
  A 0.59 0.59 0.0 0 0 1009.63 743.01
  L 1022.33 742.97"
/>
<path stroke="#b5b5b6" vector-effect="non-scaling-stroke" d="
  M 1055.71 743.78
  A 0.79 0.79 0.0 0 1 1056.49 742.94
  L 1079.80 742.69
  A 0.79 0.79 0.0 0 0 1080.58 741.86
  L 1080.45 739.42
  A 0.79 0.79 0.0 0 0 1079.66 738.67
  L 1051.43 738.66
  A 0.79 0.79 0.0 0 0 1050.64 739.45
  L 1050.74 768.67
  A 0.79 0.79 0.0 0 0 1051.54 769.46
  L 1080.06 769.09
  A 0.79 0.79 0.0 0 0 1080.84 768.24
  L 1080.70 766.42
  A 0.79 0.79 0.0 0 0 1079.92 765.70
  L 1056.87 765.24
  A 0.79 0.79 0.0 0 1 1056.09 764.46
  L 1055.94 756.45
  A 0.79 0.79 0.0 0 1 1056.71 755.64
  L 1070.12 755.34
  A 0.79 0.79 0.0 0 0 1070.90 754.51
  L 1070.77 752.22
  A 0.79 0.79 0.0 0 0 1070.00 751.48
  L 1056.87 751.21
  A 0.79 0.79 0.0 0 1 1056.10 750.47
  L 1055.71 743.78"
/>
<path stroke="#b5b5b6" vector-effect="non-scaling-stroke" d="
  M 673.58 743.47
  L 673.54 752.53
  A 0.57 0.57 0.0 0 0 674.11 753.11
  L 691.19 753.17
  A 2.81 2.45 0.2 0 0 694.01 750.73
  L 694.03 745.43
  A 2.81 2.45 0.2 0 0 691.23 742.97
  L 674.15 742.91
  A 0.57 0.57 0.0 0 0 673.58 743.47"
/>
<path stroke="#b5b5b6" vector-effect="non-scaling-stroke" d="
  M 761.32 757.52
  A 0.32 0.32 0.0 0 0 761.60 757.99
  L 776.35 757.96
  A 0.32 0.32 0.0 0 0 776.64 757.49
  L 769.24 743.24
  A 0.32 0.32 0.0 0 0 768.67 743.24
  L 761.32 757.52"
/>
<path stroke="#b5b5b6" vector-effect="non-scaling-stroke" d="
  M 983.14 757.55
  A 0.32 0.32 0.0 0 0 983.43 758.02
  L 998.17 757.99
  A 0.32 0.32 0.0 0 0 998.45 757.52
  L 991.06 743.27
  A 0.32 0.32 0.0 0 0 990.49 743.27
  L 983.14 757.55"
/>
</g>
<path fill="#ffffff" d="
  M 0.00 0.00
  L 1280.00 0.00
  L 1280.00 1280.00
  L 0.00 1280.00
  L 0.00 0.00
  Z
  M 290.02 547.18
  Q 289.81 568.00 289.73 588.75
  Q 289.50 645.92 289.47 703.45
  C 289.46 707.72 293.08 708.09 296.51 707.94
  Q 308.78 707.42 326.37 707.65
  C 331.62 707.72 331.92 703.17 331.92 699.25
  Q 331.83 626.35 331.93 553.47
  Q 331.58 499.26 331.27 445.08
  C 331.22 436.35 331.64 427.31 331.04 418.93
  Q 330.67 413.64 325.60 414.92
  C 319.60 416.44 312.93 418.51 307.97 422.06
  Q 290.24 434.74 290.30 456.50
  Q 290.40 490.88 290.21 525.27
  C 290.17 532.58 289.83 539.88 290.02 547.18
  Z
  M 371.98 543.96
  Q 371.92 624.36 371.76 704.75
  Q 371.75 708.97 375.82 709.58
  Q 381.92 710.50 400.67 712.21
  C 403.64 712.48 406.25 710.92 406.25 707.75
  C 406.26 684.46 406.51 660.94 406.02 637.51
  Q 405.50 612.88 405.62 588.25
  Q 405.72 566.11 405.91 543.89
  Q 405.85 520.80 405.77 497.50
  Q 405.76 495.01 405.04 493.00
  A 2.84 2.83 78.1 0 0 402.19 491.14
  Q 398.72 491.36 395.70 492.44
  Q 378.93 498.43 373.89 514.55
  Q 372.57 518.76 372.36 527.10
  Q 372.15 535.53 371.98 543.96
  Z
  M 222.65 536.79
  Q 222.97 557.65 222.54 578.50
  Q 222.32 588.89 222.28 598.54
  Q 222.08 652.43 222.14 706.49
  C 222.14 710.08 222.83 713.53 227.25 713.04
  Q 238.49 711.80 249.74 710.72
  Q 254.33 710.28 254.34 705.85
  C 254.42 664.57 254.62 603.04 253.76 538.58
  Q 253.73 518.14 253.75 497.82
  C 253.76 494.54 253.10 490.86 248.59 491.96
  C 236.15 494.98 225.65 504.82 223.70 517.49
  Q 222.37 526.15 222.65 536.79
  Z
  M 187.58 564.08
  C 175.59 569.27 170.24 577.19 170.23 590.42
  Q 170.18 655.18 170.25 717.87
  C 170.25 720.58 173.47 721.41 175.79 720.93
  Q 183.33 719.37 189.52 718.74
  C 193.60 718.33 196.61 716.89 196.64 712.51
  Q 197.08 651.34 196.41 588.50
  Q 196.32 579.58 196.02 568.46
  C 195.85 561.92 192.79 561.82 187.58 564.08
  Z
  M 442.44 576.85
  Q 439.88 582.45 439.86 587.50
  Q 439.81 606.37 439.95 625.78
  C 440.04 637.85 439.16 650.21 439.13 662.35
  Q 439.06 688.25 438.99 711.85
  C 438.98 715.51 440.45 718.13 444.47 718.53
  Q 452.61 719.33 459.80 721.37
  C 463.42 722.39 465.84 720.05 465.91 716.44
  Q 466.04 709.96 466.12 703.75
  C 466.34 686.97 465.82 670.99 465.75 654.74
  Q 465.65 631.59 465.72 610.25
  Q 465.80 587.27 465.63 567.26
  C 465.57 560.06 457.14 564.02 453.66 565.86
  Q 445.50 570.18 442.44 576.85
  Z
  M 528.70 631.79
  L 528.78 666.90
  L 528.78 719.32
  A 0.41 0.41 0.0 0 0 529.39 719.68
  L 554.55 705.30
  A 1.32 1.32 0.0 0 0 555.22 704.15
  L 555.21 667.72
  L 555.11 650.24
  Q 555.10 648.39 556.18 649.89
  L 564.54 661.64
  L 587.60 693.43
  A 1.48 1.47 -18.0 0 0 588.79 694.03
  L 604.53 694.06
  A 1.69 1.67 17.8 0 0 605.89 693.37
  L 635.54 652.58
  L 637.26 650.09
  Q 638.28 648.61 638.48 650.39
  Q 638.55 651.00 638.45 651.79
  L 638.43 704.70
  A 0.36 0.36 0.0 0 0 638.79 705.06
  L 664.77 705.07
  Q 665.69 705.07 665.69 704.15
  L 665.70 652.25
  L 665.69 634.74
  L 665.67 617.28
  A 0.95 0.94 90.0 0 0 664.73 616.33
  L 635.57 616.25
  A 1.75 1.74 17.6 0 0 634.15 616.98
  L 621.00 635.25
  L 610.18 650.16
  L 597.24 668.03
  A 0.54 0.54 0.0 0 1 596.37 668.03
  L 591.02 660.67
  L 567.33 628.12
  Q 563.90 623.15 560.26 617.79
  Q 559.24 616.29 556.75 616.28
  Q 542.94 616.18 529.21 616.41
  A 0.45 0.44 -0.0 0 0 528.77 616.84
  L 528.70 631.79
  Z
  M 684.15 643.47
  L 684.18 659.03
  L 684.17 719.55
  A 0.55 0.55 0.0 0 0 684.99 720.03
  L 710.69 705.46
  A 1.34 1.33 -15.2 0 0 711.37 704.28
  L 711.35 680.08
  A 0.40 0.39 90.0 0 1 711.74 679.68
  L 764.21 679.64
  A 0.57 0.57 0.0 0 1 764.78 680.21
  L 764.75 704.52
  A 0.52 0.51 0.0 0 0 765.27 705.03
  L 791.56 705.07
  A 0.59 0.59 0.0 0 0 792.15 704.48
  L 792.18 661.38
  L 792.19 646.93
  L 792.20 637.70
  A 4.25 4.24 22.4 0 0 790.92 634.64
  Q 782.12 626.04 773.85 617.73
  Q 772.40 616.27 770.00 616.27
  Q 739.13 616.27 708.25 616.26
  C 705.46 616.26 703.59 616.63 701.73 618.47
  Q 693.34 626.77 685.19 634.90
  A 3.33 3.31 68.1 0 0 684.22 637.20
  L 684.15 643.47
  Z
  M 808.01 642.17
  Q 807.57 642.75 807.46 643.09
  Q 807.38 643.32 807.52 643.52
  Q 817.21 656.78 826.42 669.04
  A 1.70 1.70 0.0 0 0 827.78 669.72
  L 894.10 669.69
  L 900.39 677.00
  Q 900.82 677.49 900.41 677.98
  Q 898.22 680.64 895.71 683.37
  C 894.53 684.67 893.11 684.62 891.50 684.63
  Q 861.11 684.73 828.90 684.63
  A 4.29 4.29 0.0 0 0 825.82 685.91
  Q 817.39 694.43 808.18 703.77
  Q 807.78 704.17 807.57 704.71
  A 0.26 0.26 0.0 0 0 807.81 705.06
  L 909.00 705.10
  Q 910.40 705.10 911.23 703.98
  L 930.40 678.11
  A 1.07 1.07 0.0 0 0 930.39 676.82
  L 924.96 669.70
  L 911.87 652.22
  A 2.90 2.90 0.0 0 0 909.55 651.06
  L 844.35 651.06
  A 2.07 2.07 0.0 0 1 842.78 650.34
  L 837.51 644.36
  Q 838.85 640.34 843.23 636.54
  A 1.22 1.21 24.5 0 1 844.02 636.25
  L 909.14 636.23
  A 3.79 3.76 -67.5 0 0 911.82 635.11
  L 929.90 616.98
  Q 930.58 616.30 929.62 616.30
  L 828.26 616.26
  A 2.24 2.24 0.0 0 0 826.45 617.18
  L 808.01 642.17
  Z
  M 945.34 647.19
  L 945.33 662.57
  L 945.33 719.45
  A 0.58 0.58 0.0 0 0 946.19 719.96
  L 971.75 705.55
  A 1.47 1.47 0.0 0 0 972.50 704.27
  L 972.50 680.28
  Q 972.50 679.69 973.08 679.69
  L 1025.46 679.67
  Q 1025.99 679.67 1025.99 680.21
  L 1025.95 704.49
  A 0.54 0.54 0.0 0 0 1026.49 705.03
  L 1052.90 705.08
  A 0.56 0.56 0.0 0 0 1053.46 704.52
  L 1053.46 653.13
  L 1053.45 640.01
  C 1053.81 638.09 1053.66 636.21 1052.23 634.80
  Q 1043.82 626.53 1035.89 618.55
  Q 1033.58 616.23 1030.20 616.23
  Q 998.42 616.29 967.18 616.27
  A 4.66 4.62 -66.9 0 0 963.90 617.61
  L 946.38 634.78
  A 3.51 3.47 -22.4 0 0 945.33 637.27
  L 945.34 647.19
  Z
  M 1072.03 638.49
  L 1072.03 657.56
  L 1072.05 719.60
  A 0.51 0.51 0.0 0 0 1072.82 720.04
  L 1098.42 705.32
  A 1.64 1.63 75.2 0 0 1099.24 703.90
  L 1099.24 675.99
  A 0.94 0.93 -0.3 0 1 1100.17 675.06
  Q 1124.04 674.94 1145.60 675.07
  C 1147.70 675.08 1149.66 674.92 1151.37 676.46
  C 1153.75 678.60 1158.10 681.98 1158.10 685.29
  Q 1158.09 694.73 1158.08 704.34
  A 0.71 0.71 0.0 0 0 1158.79 705.05
  L 1184.95 705.09
  Q 1185.30 705.09 1185.31 704.74
  Q 1185.74 692.67 1185.17 680.84
  Q 1185.08 679.03 1183.76 677.69
  Q 1177.11 670.94 1170.15 664.25
  A 0.32 0.31 -49.5 0 1 1170.12 663.84
  L 1185.16 643.66
  Q 1185.50 643.21 1185.13 642.79
  L 1183.95 641.46
  L 1166.12 617.23
  A 2.35 2.34 -17.8 0 0 1164.22 616.26
  L 1072.56 616.29
  A 0.38 0.37 90.0 0 0 1072.19 616.67
  L 1072.03 638.49
  Z
  M 531.55 760.34
  Q 518.13 755.73 504.73 751.56
  Q 486.43 745.87 463.52 740.62
  Q 453.51 738.32 443.93 736.65
  Q 428.82 734.02 414.06 731.70
  Q 408.05 730.76 402.85 730.32
  Q 397.27 729.84 391.68 729.12
  Q 383.58 728.08 375.44 727.87
  C 371.88 727.77 368.39 727.12 364.84 726.92
  C 353.04 726.26 341.04 725.70 329.10 725.72
  C 308.22 725.76 287.87 725.53 267.23 727.28
  C 259.02 727.98 250.97 728.20 242.99 729.35
  C 236.55 730.28 229.97 730.30 223.37 731.44
  C 212.36 733.36 200.84 734.83 189.94 737.09
  Q 161.39 743.02 133.24 750.66
  C 126.45 752.51 119.70 755.47 112.49 757.53
  Q 105.95 759.39 95.44 763.49
  Q 93.62 764.20 92.33 765.47
  A 0.95 0.95 0.0 0 0 92.20 766.66
  Q 93.18 768.19 94.56 768.21
  C 117.20 768.45 140.00 768.60 163.25 768.80
  Q 168.60 768.84 172.59 768.74
  C 178.35 768.58 183.95 768.93 189.60 768.68
  C 194.66 768.46 199.83 768.89 205.00 768.89
  Q 241.78 768.88 281.50 768.72
  Q 284.50 768.71 287.50 768.75
  Q 301.20 768.93 315.73 768.84
  Q 333.19 768.73 350.48 768.67
  Q 356.48 768.64 363.25 768.67
  Q 407.40 768.86 452.99 769.00
  Q 463.78 769.04 472.90 768.88
  Q 506.34 768.31 539.35 768.49
  Q 541.01 768.50 542.57 767.36
  A 1.09 1.08 70.3 0 0 543.01 766.41
  Q 542.88 764.71 541.23 764.02
  Q 536.53 762.05 531.55 760.34
  Z
  M 689.71 757.45
  C 693.41 757.66 698.71 758.00 699.31 753.23
  Q 699.81 749.20 699.45 744.01
  Q 699.08 738.68 694.38 738.60
  Q 684.23 738.42 668.69 738.53
  Q 668.01 738.54 668.01 739.21
  L 668.05 768.75
  Q 668.05 769.37 668.68 769.37
  L 673.04 769.32
  A 0.61 0.61 0.0 0 0 673.64 768.71
  L 673.56 758.21
  A 0.73 0.72 -0.4 0 1 674.29 757.48
  L 681.68 757.52
  A 1.65 1.64 67.1 0 1 682.83 757.99
  L 693.22 768.18
  Q 694.35 769.29 695.93 769.32
  L 701.23 769.42
  Q 702.78 769.45 701.60 768.44
  L 689.47 758.03
  Q 688.73 757.39 689.71 757.45
  Z
  M 718.72 756.26
  A 0.58 0.58 0.0 0 1 719.30 755.67
  L 733.42 755.50
  A 0.58 0.58 0.0 0 0 733.99 754.89
  L 733.85 751.84
  A 0.58 0.58 0.0 0 0 733.28 751.28
  L 719.37 751.16
  A 0.58 0.58 0.0 0 1 718.79 750.58
  L 718.71 743.42
  A 0.58 0.58 0.0 0 1 719.29 742.83
  L 742.64 742.87
  A 0.58 0.58 0.0 0 0 743.22 742.30
  L 743.27 739.20
  A 0.58 0.58 0.0 0 0 742.69 738.61
  L 714.05 738.53
  A 0.58 0.58 0.0 0 0 713.47 739.11
  L 713.39 768.70
  A 0.58 0.58 0.0 0 0 713.97 769.28
  L 742.88 769.28
  A 0.58 0.58 0.0 0 0 743.46 768.70
  L 743.46 765.85
  A 0.58 0.58 0.0 0 0 742.88 765.27
  L 719.34 765.32
  A 0.58 0.58 0.0 0 1 718.76 764.74
  L 718.72 756.26
  Z
  M 758.60 762.76
  A 0.51 0.51 0.0 0 1 759.05 762.49
  L 778.85 762.51
  A 0.51 0.51 0.0 0 1 779.30 762.77
  L 782.78 769.09
  A 0.51 0.51 0.0 0 0 783.22 769.35
  L 788.16 769.42
  A 0.51 0.51 0.0 0 0 788.62 768.66
  L 772.12 738.70
  A 0.51 0.51 0.0 0 0 771.66 738.44
  L 766.52 738.54
  A 0.51 0.51 0.0 0 0 766.08 738.81
  L 749.91 768.58
  A 0.51 0.51 0.0 0 0 750.35 769.33
  L 754.77 769.40
  A 0.51 0.51 0.0 0 0 755.23 769.13
  L 758.60 762.76
  Z
  M 827.26 766.05
  A 0.51 0.51 0.0 0 0 826.76 765.50
  L 804.55 765.24
  A 0.51 0.51 0.0 0 1 804.05 764.73
  L 804.03 739.01
  A 0.51 0.51 0.0 0 0 803.52 738.50
  L 798.99 738.49
  A 0.51 0.51 0.0 0 0 798.48 739.00
  L 798.49 768.83
  A 0.51 0.51 0.0 0 0 799.00 769.34
  L 826.55 769.16
  A 0.51 0.51 0.0 0 0 827.06 768.69
  L 827.26 766.05
  Z
  M 864.68 756.36
  A 0.67 0.67 0.0 0 1 865.34 755.68
  L 878.88 755.56
  A 0.67 0.67 0.0 0 0 879.54 754.88
  L 879.50 751.90
  A 0.67 0.67 0.0 0 0 878.83 751.24
  L 865.44 751.22
  A 0.67 0.67 0.0 0 1 864.77 750.57
  L 864.61 743.51
  A 0.67 0.67 0.0 0 1 865.28 742.82
  L 888.47 742.89
  A 0.67 0.67 0.0 0 0 889.14 742.19
  L 889.00 739.20
  A 0.67 0.67 0.0 0 0 888.33 738.56
  L 859.78 738.63
  A 0.67 0.67 0.0 0 0 859.11 739.30
  L 859.07 768.65
  A 0.67 0.67 0.0 0 0 859.74 769.32
  L 888.60 769.24
  A 0.67 0.67 0.0 0 0 889.27 768.57
  L 889.27 765.99
  A 0.67 0.67 0.0 0 0 888.60 765.32
  L 865.41 765.33
  A 0.67 0.67 0.0 0 1 864.74 764.67
  L 864.68 756.36
  Z
  M 906.37 742.96
  L 925.97 742.95
  Q 926.70 742.95 926.67 743.68
  L 926.56 746.25
  Q 926.51 747.56 927.79 747.35
  Q 929.70 747.04 931.13 746.14
  A 1.38 1.37 -17.3 0 0 931.76 744.95
  Q 931.59 738.69 925.79 738.58
  Q 915.93 738.40 906.41 738.57
  Q 901.26 738.67 900.83 743.62
  Q 900.43 748.36 901.21 752.48
  C 901.79 755.57 905.17 756.24 907.79 756.20
  Q 917.05 756.04 926.26 756.08
  A 0.75 0.75 0.0 0 1 927.00 756.82
  L 927.01 764.76
  Q 927.01 765.29 926.49 765.28
  L 905.10 765.28
  Q 904.43 765.28 904.45 764.60
  L 904.57 761.47
  Q 904.62 760.01 903.21 760.40
  L 900.62 761.13
  Q 899.51 761.44 899.49 762.59
  C 899.43 765.53 900.23 769.24 903.92 769.25
  Q 915.28 769.31 927.72 769.26
  C 933.39 769.23 932.23 759.02 931.73 755.83
  C 931.19 752.34 927.47 751.48 924.45 751.49
  Q 915.11 751.54 906.28 751.48
  A 0.77 0.77 0.0 0 1 905.52 750.69
  L 905.69 743.63
  Q 905.71 742.96 906.37 742.96
  Z
  M 953.67 742.97
  A 0.57 0.57 0.0 0 1 954.24 743.54
  L 954.20 768.85
  A 0.57 0.57 0.0 0 0 954.78 769.42
  L 959.06 769.35
  A 0.57 0.57 0.0 0 0 959.62 768.78
  L 959.49 743.53
  A 0.57 0.57 0.0 0 1 960.06 742.96
  L 973.18 742.99
  A 0.57 0.57 0.0 0 0 973.75 742.42
  L 973.76 739.07
  A 0.57 0.57 0.0 0 0 973.19 738.50
  L 940.71 738.51
  A 0.57 0.57 0.0 0 0 940.14 739.07
  L 940.10 742.42
  A 0.57 0.57 0.0 0 0 940.67 743.00
  L 953.67 742.97
  Z
  M 1000.74 762.50
  A 0.49 0.49 0.0 0 1 1001.18 762.77
  L 1004.39 769.09
  A 0.49 0.49 0.0 0 0 1004.83 769.36
  L 1009.94 769.39
  A 0.49 0.49 0.0 0 0 1010.37 768.67
  L 993.93 738.75
  A 0.49 0.49 0.0 0 0 993.50 738.50
  L 988.39 738.45
  A 0.49 0.49 0.0 0 0 987.96 738.71
  L 971.62 768.64
  A 0.49 0.49 0.0 0 0 972.05 769.36
  L 976.53 769.39
  A 0.49 0.49 0.0 0 0 976.96 769.13
  L 980.39 762.74
  A 0.49 0.49 0.0 0 1 980.82 762.48
  L 1000.74 762.50
  Z
  M 1022.33 742.97
  A 0.59 0.59 0.0 0 1 1022.92 743.56
  L 1022.87 768.77
  A 0.59 0.59 0.0 0 0 1023.46 769.36
  L 1027.96 769.33
  A 0.59 0.59 0.0 0 0 1028.55 768.74
  L 1028.44 743.57
  A 0.59 0.59 0.0 0 1 1029.02 742.98
  L 1041.98 742.69
  A 0.59 0.59 0.0 0 0 1042.56 742.08
  L 1042.44 739.17
  A 0.59 0.59 0.0 0 0 1041.86 738.61
  L 1009.60 738.47
  A 0.59 0.59 0.0 0 0 1009.01 739.07
  L 1009.03 742.42
  A 0.59 0.59 0.0 0 0 1009.63 743.01
  L 1022.33 742.97
  Z
  M 1055.71 743.78
  A 0.79 0.79 0.0 0 1 1056.49 742.94
  L 1079.80 742.69
  A 0.79 0.79 0.0 0 0 1080.58 741.86
  L 1080.45 739.42
  A 0.79 0.79 0.0 0 0 1079.66 738.67
  L 1051.43 738.66
  A 0.79 0.79 0.0 0 0 1050.64 739.45
  L 1050.74 768.67
  A 0.79 0.79 0.0 0 0 1051.54 769.46
  L 1080.06 769.09
  A 0.79 0.79 0.0 0 0 1080.84 768.24
  L 1080.70 766.42
  A 0.79 0.79 0.0 0 0 1079.92 765.70
  L 1056.87 765.24
  A 0.79 0.79 0.0 0 1 1056.09 764.46
  L 1055.94 756.45
  A 0.79 0.79 0.0 0 1 1056.71 755.64
  L 1070.12 755.34
  A 0.79 0.79 0.0 0 0 1070.90 754.51
  L 1070.77 752.22
  A 0.79 0.79 0.0 0 0 1070.00 751.48
  L 1056.87 751.21
  A 0.79 0.79 0.0 0 1 1056.10 750.47
  L 1055.71 743.78
  Z"
/>
<path fill="#3883d2" d="
  M 331.93 553.47
  Q 331.24 551.48 329.87 549.96
  Q 329.51 549.56 328.98 549.57
  L 320.52 549.70
  Q 320.07 549.71 319.68 549.49
  Q 318.51 548.87 316.99 549.15
  Q 315.98 549.34 315.02 549.19
  Q 314.45 549.09 313.90 549.27
  Q 312.07 549.85 310.19 549.03
  Q 309.73 548.84 309.25 548.96
  Q 307.81 549.34 306.38 548.77
  Q 305.96 548.60 305.53 548.77
  Q 303.76 549.52 301.97 548.74
  Q 301.55 548.56 301.16 548.78
  Q 300.49 549.15 299.88 548.65
  Q 299.53 548.37 299.09 548.45
  Q 297.92 548.66 296.91 548.09
  Q 296.11 547.64 295.26 547.40
  Q 293.19 546.81 291.19 546.01
  Q 290.74 545.83 290.72 546.32
  Q 290.67 548.45 290.02 547.18
  C 289.83 539.88 290.17 532.58 290.21 525.27
  Q 290.40 490.88 290.30 456.50
  Q 290.24 434.74 307.97 422.06
  C 312.93 418.51 319.60 416.44 325.60 414.92
  Q 330.67 413.64 331.04 418.93
  C 331.64 427.31 331.22 436.35 331.27 445.08
  Q 331.58 499.26 331.93 553.47
  Z"
/>
<path fill="#3883d2" d="
  M 405.91 543.89
  Q 394.09 544.47 390.99 544.52
  Q 387.92 544.58 383.70 544.30
  Q 382.57 544.22 380.79 544.42
  Q 379.33 544.59 377.85 544.49
  Q 377.00 544.43 375.69 544.62
  Q 374.47 544.78 373.37 544.49
  Q 372.87 544.36 372.73 544.85
  Q 372.41 546.00 372.41 544.81
  Q 372.42 544.05 371.98 543.96
  Q 372.15 535.53 372.36 527.10
  Q 372.57 518.76 373.89 514.55
  Q 378.93 498.43 395.70 492.44
  Q 398.72 491.36 402.19 491.14
  A 2.84 2.83 78.1 0 1 405.04 493.00
  Q 405.76 495.01 405.77 497.50
  Q 405.85 520.80 405.91 543.89
  Z"
/>
<path fill="#3883d2" d="
  M 253.76 538.58
  Q 253.39 537.79 253.04 537.38
  Q 252.64 536.89 252.02 536.95
  Q 241.89 537.91 235.50 537.59
  Q 231.02 537.37 226.17 536.23
  Q 224.80 535.91 224.18 537.03
  Q 223.94 537.47 223.66 537.05
  Q 223.22 536.40 222.65 536.79
  Q 222.37 526.15 223.70 517.49
  C 225.65 504.82 236.15 494.98 248.59 491.96
  C 253.10 490.86 253.76 494.54 253.75 497.82
  Q 253.73 518.14 253.76 538.58
  Z"
/>
<path fill="#254e9e" d="
  M 253.76 538.58
  C 254.62 603.04 254.42 664.57 254.34 705.85
  Q 254.33 710.28 249.74 710.72
  Q 238.49 711.80 227.25 713.04
  C 222.83 713.53 222.14 710.08 222.14 706.49
  Q 222.08 652.43 222.28 598.54
  Q 222.32 588.89 222.54 578.50
  Q 222.97 557.65 222.65 536.79
  Q 223.22 536.40 223.66 537.05
  Q 223.94 537.47 224.18 537.03
  Q 224.80 535.91 226.17 536.23
  Q 231.02 537.37 235.50 537.59
  Q 241.89 537.91 252.02 536.95
  Q 252.64 536.89 253.04 537.38
  Q 253.39 537.79 253.76 538.58
  Z"
/>
<path fill="#254e9e" d="
  M 371.98 543.96
  Q 372.42 544.05 372.41 544.81
  Q 372.41 546.00 372.73 544.85
  Q 372.87 544.36 373.37 544.49
  Q 374.47 544.78 375.69 544.62
  Q 377.00 544.43 377.85 544.49
  Q 379.33 544.59 380.79 544.42
  Q 382.57 544.22 383.70 544.30
  Q 387.92 544.58 390.99 544.52
  Q 394.09 544.47 405.91 543.89
  Q 405.72 566.11 405.62 588.25
  Q 405.50 612.88 406.02 637.51
  C 406.51 660.94 406.26 684.46 406.25 707.75
  C 406.25 710.92 403.64 712.48 400.67 712.21
  Q 381.92 710.50 375.82 709.58
  Q 371.75 708.97 371.76 704.75
  Q 371.92 624.36 371.98 543.96
  Z"
/>
<path fill="#254e9e" d="
  M 331.93 553.47
  Q 331.83 626.35 331.92 699.25
  C 331.92 703.17 331.62 707.72 326.37 707.65
  Q 308.78 707.42 296.51 707.94
  C 293.08 708.09 289.46 707.72 289.47 703.45
  Q 289.50 645.92 289.73 588.75
  Q 289.81 568.00 290.02 547.18
  Q 290.67 548.45 290.72 546.32
  Q 290.74 545.83 291.19 546.01
  Q 293.19 546.81 295.26 547.40
  Q 296.11 547.64 296.91 548.09
  Q 297.92 548.66 299.09 548.45
  Q 299.53 548.37 299.88 548.65
  Q 300.49 549.15 301.16 548.78
  Q 301.55 548.56 301.97 548.74
  Q 303.76 549.52 305.53 548.77
  Q 305.96 548.60 306.38 548.77
  Q 307.81 549.34 309.25 548.96
  Q 309.73 548.84 310.19 549.03
  Q 312.07 549.85 313.90 549.27
  Q 314.45 549.09 315.02 549.19
  Q 315.98 549.34 316.99 549.15
  Q 318.51 548.87 319.68 549.49
  Q 320.07 549.71 320.52 549.70
  L 328.98 549.57
  Q 329.51 549.56 329.87 549.96
  Q 331.24 551.48 331.93 553.47
  Z"
/>
<path fill="#254e9e" d="
  M 187.58 564.08
  C 192.79 561.82 195.85 561.92 196.02 568.46
  Q 196.32 579.58 196.41 588.50
  Q 197.08 651.34 196.64 712.51
  C 196.61 716.89 193.60 718.33 189.52 718.74
  Q 183.33 719.37 175.79 720.93
  C 173.47 721.41 170.25 720.58 170.25 717.87
  Q 170.18 655.18 170.23 590.42
  C 170.24 577.19 175.59 569.27 187.58 564.08
  Z"
/>
<path fill="#254e9e" d="
  M 442.44 576.85
  Q 445.50 570.18 453.66 565.86
  C 457.14 564.02 465.57 560.06 465.63 567.26
  Q 465.80 587.27 465.72 610.25
  Q 465.65 631.59 465.75 654.74
  C 465.82 670.99 466.34 686.97 466.12 703.75
  Q 466.04 709.96 465.91 716.44
  C 465.84 720.05 463.42 722.39 459.80 721.37
  Q 452.61 719.33 444.47 718.53
  C 440.45 718.13 438.98 715.51 438.99 711.85
  Q 439.06 688.25 439.13 662.35
  C 439.16 650.21 440.04 637.85 439.95 625.78
  Q 439.81 606.37 439.86 587.50
  Q 439.88 582.45 442.44 576.85
  Z"
/>
<path fill="#3883d2" d="
  M 567.33 628.12
  L 566.37 630.70
  Q 566.20 631.16 565.83 630.85
  Q 565.72 630.76 565.58 630.74
  A 1.17 1.14 27.4 0 0 564.72 631.00
  Q 563.82 631.75 562.70 631.87
  Q 556.42 632.51 549.65 632.38
  Q 547.16 632.34 544.28 632.79
  Q 541.62 633.20 539.30 632.45
  C 537.44 631.84 535.73 632.49 533.97 631.70
  Q 533.48 631.49 533.01 631.75
  Q 532.48 632.04 532.09 631.62
  Q 531.95 631.47 531.78 631.39
  Q 531.50 631.26 531.29 631.49
  A 0.34 0.34 0.0 0 1 530.74 631.41
  L 530.45 630.87
  A 0.51 0.50 -20.3 0 0 529.90 630.62
  L 529.56 630.69
  A 0.35 0.35 0.0 0 0 529.32 631.18
  Q 529.44 631.43 529.32 631.65
  Q 529.25 631.79 529.10 631.85
  Q 528.92 631.92 528.70 631.79
  L 528.77 616.84
  A 0.45 0.44 -0.0 0 1 529.21 616.41
  Q 542.94 616.18 556.75 616.28
  Q 559.24 616.29 560.26 617.79
  Q 563.90 623.15 567.33 628.12
  Z"
/>
<path fill="#3883d2" d="
  M 665.69 634.74
  Q 664.35 636.61 662.93 635.96
  Q 662.48 635.75 662.01 635.85
  Q 660.03 636.24 658.00 636.16
  Q 647.00 635.72 636.00 635.93
  Q 633.47 635.98 626.65 635.39
  Q 626.49 635.38 626.35 635.31
  Q 626.22 635.25 626.20 635.08
  Q 626.18 634.70 625.80 634.74
  L 621.00 635.25
  L 634.15 616.98
  A 1.75 1.74 17.6 0 1 635.57 616.25
  L 664.73 616.33
  A 0.95 0.94 -90.0 0 1 665.67 617.28
  L 665.69 634.74
  Z"
/>
<path fill="#3883d2" d="
  M 792.19 646.93
  Q 791.43 645.42 789.32 646.32
  Q 789.11 646.40 789.03 646.18
  Q 788.96 645.98 788.74 646.00
  Q 779.69 646.83 770.62 646.91
  Q 770.52 646.91 769.65 646.76
  Q 769.03 646.65 767.88 646.75
  Q 766.43 646.87 764.73 646.94
  L 764.77 636.96
  A 0.71 0.71 0.0 0 0 764.05 636.25
  L 712.21 636.27
  Q 711.33 636.27 711.34 637.15
  L 711.42 643.79
  Q 710.40 641.68 704.40 643.09
  Q 704.13 643.15 704.08 643.43
  Q 704.04 643.60 703.86 643.62
  Q 694.94 644.50 686.11 642.88
  Q 685.69 642.81 685.38 643.10
  Q 685.22 643.25 685.00 643.28
  Q 684.72 643.33 684.70 643.04
  Q 684.70 642.99 684.68 642.95
  Q 684.42 642.31 684.31 643.00
  Q 684.27 643.25 684.15 643.47
  L 684.22 637.20
  A 3.33 3.31 68.1 0 1 685.19 634.90
  Q 693.34 626.77 701.73 618.47
  C 703.59 616.63 705.46 616.26 708.25 616.26
  Q 739.13 616.27 770.00 616.27
  Q 772.40 616.27 773.85 617.73
  Q 782.12 626.04 790.92 634.64
  A 4.25 4.24 22.4 0 1 792.20 637.70
  L 792.19 646.93
  Z"
/>
<path fill="#3883d2" d="
  M 837.51 644.36
  Q 826.64 645.82 815.75 644.63
  Q 813.21 644.36 808.01 642.17
  L 826.45 617.18
  A 2.24 2.24 0.0 0 1 828.26 616.26
  L 929.62 616.30
  Q 930.58 616.30 929.90 616.98
  L 911.82 635.11
  A 3.79 3.76 -67.5 0 1 909.14 636.23
  L 844.02 636.25
  A 1.22 1.21 24.5 0 0 843.23 636.54
  Q 838.85 640.34 837.51 644.36
  Z"
/>
<path fill="#3883d2" d="
  M 1053.45 640.01
  Q 1038.73 640.83 1034.25 640.95
  C 1031.85 641.02 1030.11 639.68 1027.21 640.96
  Q 1026.77 641.15 1026.51 640.75
  L 1026.02 640.02
  L 1025.79 636.75
  Q 1025.75 636.26 1025.26 636.26
  L 973.03 636.25
  Q 972.56 636.25 972.56 636.72
  L 972.51 644.16
  L 971.51 645.53
  Q 971.23 645.91 970.76 645.97
  Q 959.89 647.20 949.25 645.59
  Q 948.09 645.41 947.12 645.62
  Q 945.28 646.02 945.34 647.19
  L 945.33 637.27
  A 3.51 3.47 -22.4 0 1 946.38 634.78
  L 963.90 617.61
  A 4.66 4.62 -66.9 0 1 967.18 616.27
  Q 998.42 616.29 1030.20 616.23
  Q 1033.58 616.23 1035.89 618.55
  Q 1043.82 626.53 1052.23 634.80
  C 1053.66 636.21 1053.81 638.09 1053.45 640.01
  Z"
/>
<path fill="#3883d2" d="
  M 1183.95 641.46
  L 1182.42 643.66
  A 0.98 0.95 -71.5 0 1 1181.61 644.08
  L 1156.14 643.53
  L 1151.82 637.69
  A 3.57 3.55 71.5 0 0 1148.97 636.26
  L 1099.77 636.26
  Q 1099.28 636.26 1099.27 636.75
  L 1099.24 639.62
  Q 1098.84 638.33 1098.20 638.11
  Q 1097.61 637.91 1097.06 638.20
  Q 1095.48 639.05 1093.88 638.84
  Q 1092.69 638.69 1091.38 638.78
  Q 1088.12 639.01 1083.90 638.94
  Q 1082.93 638.93 1078.21 638.17
  Q 1074.98 637.66 1072.03 638.49
  L 1072.19 616.67
  A 0.38 0.37 -90.0 0 1 1072.56 616.29
  L 1164.22 616.26
  A 2.35 2.34 -17.8 0 1 1166.12 617.23
  L 1183.95 641.46
  Z"
/>
<path fill="#254e9e" d="
  M 567.33 628.12
  L 591.02 660.67
  Q 579.99 663.09 576.25 662.59
  Q 574.21 662.32 572.15 662.34
  Q 570.82 662.34 568.44 661.77
  Q 566.59 661.32 564.54 661.64
  L 556.18 649.89
  Q 555.10 648.39 555.11 650.24
  L 555.21 667.72
  Q 555.08 665.63 553.45 666.01
  Q 552.51 666.23 551.63 666.48
  Q 550.67 666.76 549.79 666.82
  Q 540.77 667.38 536.94 667.03
  Q 534.69 666.83 532.25 666.39
  Q 531.48 666.25 528.78 666.90
  L 528.70 631.79
  Q 528.92 631.92 529.10 631.85
  Q 529.25 631.79 529.32 631.65
  Q 529.44 631.43 529.32 631.18
  A 0.35 0.35 0.0 0 1 529.56 630.69
  L 529.90 630.62
  A 0.51 0.50 -20.3 0 1 530.45 630.87
  L 530.74 631.41
  A 0.34 0.34 0.0 0 0 531.29 631.49
  Q 531.50 631.26 531.78 631.39
  Q 531.95 631.47 532.09 631.62
  Q 532.48 632.04 533.01 631.75
  Q 533.48 631.49 533.97 631.70
  C 535.73 632.49 537.44 631.84 539.30 632.45
  Q 541.62 633.20 544.28 632.79
  Q 547.16 632.34 549.65 632.38
  Q 556.42 632.51 562.70 631.87
  Q 563.82 631.75 564.72 631.00
  A 1.17 1.14 27.4 0 1 565.58 630.74
  Q 565.72 630.76 565.83 630.85
  Q 566.20 631.16 566.37 630.70
  L 567.33 628.12
  Z"
/>
<path fill="#254e9e" d="
  M 665.69 634.74
  L 665.70 652.25
  Q 651.93 653.20 638.45 651.79
  Q 638.55 651.00 638.48 650.39
  Q 638.28 648.61 637.26 650.09
  L 635.54 652.58
  Q 634.14 651.17 632.65 651.59
  Q 630.84 652.10 630.77 652.11
  Q 624.96 652.61 618.39 651.92
  Q 616.30 651.70 614.31 651.24
  C 613.57 651.06 612.72 651.29 611.97 651.44
  Q 610.77 651.68 610.18 650.16
  L 621.00 635.25
  L 625.80 634.74
  Q 626.18 634.70 626.20 635.08
  Q 626.22 635.25 626.35 635.31
  Q 626.49 635.38 626.65 635.39
  Q 633.47 635.98 636.00 635.93
  Q 647.00 635.72 658.00 636.16
  Q 660.03 636.24 662.01 635.85
  Q 662.48 635.75 662.93 635.96
  Q 664.35 636.61 665.69 634.74
  Z"
/>
<path fill="#ffffff" d="
  M 764.73 646.94
  L 764.58 658.54
  Q 764.57 659.05 764.06 659.08
  L 757.14 659.45
  L 713.06 659.34
  L 711.96 659.04
  Q 711.45 658.90 711.45 658.36
  L 711.42 643.79
  L 711.34 637.15
  Q 711.33 636.27 712.21 636.27
  L 764.05 636.25
  A 0.71 0.71 0.0 0 1 764.77 636.96
  L 764.73 646.94
  Z"
/>
<path fill="#ffffff" d="
  M 1026.02 640.02
  L 1025.88 653.64
  L 1025.89 658.41
  A 0.85 0.85 0.0 0 1 1025.04 659.26
  L 972.70 659.32
  L 972.51 644.16
  L 972.56 636.72
  Q 972.56 636.25 973.03 636.25
  L 1025.26 636.26
  Q 1025.75 636.26 1025.79 636.75
  L 1026.02 640.02
  Z"
/>
<path fill="#ffffff" d="
  M 1156.14 643.53
  Q 1156.76 644.10 1157.10 644.80
  Q 1157.32 645.25 1157.03 645.65
  Q 1154.36 649.31 1151.57 653.12
  Q 1150.38 654.75 1147.75 654.71
  Q 1134.31 654.51 1102.14 654.85
  L 1099.81 654.41
  Q 1099.35 654.32 1099.34 653.85
  L 1099.24 639.62
  L 1099.27 636.75
  Q 1099.28 636.26 1099.77 636.26
  L 1148.97 636.26
  A 3.57 3.55 71.5 0 1 1151.82 637.69
  L 1156.14 643.53
  Z"
/>
<path fill="#254e9e" d="
  M 1099.24 639.62
  L 1099.34 653.85
  Q 1099.35 654.32 1099.81 654.41
  L 1102.14 654.85
  Q 1092.01 656.25 1081.88 656.28
  Q 1080.14 656.28 1078.75 655.89
  Q 1076.94 655.37 1075.20 655.49
  Q 1074.20 655.56 1073.26 655.37
  Q 1072.70 655.25 1072.54 655.80
  L 1072.03 657.56
  L 1072.03 638.49
  Q 1074.98 637.66 1078.21 638.17
  Q 1082.93 638.93 1083.90 638.94
  Q 1088.12 639.01 1091.38 638.78
  Q 1092.69 638.69 1093.88 638.84
  Q 1095.48 639.05 1097.06 638.20
  Q 1097.61 637.91 1098.20 638.11
  Q 1098.84 638.33 1099.24 639.62
  Z"
/>
<path fill="#254e9e" d="
  M 1026.02 640.02
  L 1026.51 640.75
  Q 1026.77 641.15 1027.21 640.96
  C 1030.11 639.68 1031.85 641.02 1034.25 640.95
  Q 1038.73 640.83 1053.45 640.01
  L 1053.46 653.13
  Q 1052.37 652.03 1049.77 652.50
  Q 1046.63 653.08 1046.18 653.11
  Q 1041.28 653.52 1036.36 653.63
  Q 1035.91 653.64 1031.16 653.19
  Q 1028.55 652.95 1025.88 653.64
  L 1026.02 640.02
  Z"
/>
<path fill="#1d398f" d="
  M 1183.95 641.46
  L 1185.13 642.79
  Q 1185.50 643.21 1185.16 643.66
  L 1170.12 663.84
  A 0.32 0.31 -49.5 0 0 1170.15 664.25
  Q 1177.11 670.94 1183.76 677.69
  Q 1185.08 679.03 1185.17 680.84
  Q 1185.74 692.67 1185.31 704.74
  Q 1185.30 705.09 1184.95 705.09
  L 1158.79 705.05
  A 0.71 0.71 0.0 0 1 1158.08 704.34
  Q 1158.09 694.73 1158.10 685.29
  C 1158.10 681.98 1153.75 678.60 1151.37 676.46
  C 1149.66 674.92 1147.70 675.08 1145.60 675.07
  Q 1124.04 674.94 1100.17 675.06
  A 0.94 0.93 -0.3 0 0 1099.24 675.99
  L 1099.24 703.90
  A 1.64 1.63 75.2 0 1 1098.42 705.32
  L 1072.82 720.04
  A 0.51 0.51 0.0 0 1 1072.05 719.60
  L 1072.03 657.56
  L 1072.54 655.80
  Q 1072.70 655.25 1073.26 655.37
  Q 1074.20 655.56 1075.20 655.49
  Q 1076.94 655.37 1078.75 655.89
  Q 1080.14 656.28 1081.88 656.28
  Q 1092.01 656.25 1102.14 654.85
  Q 1134.31 654.51 1147.75 654.71
  Q 1150.38 654.75 1151.57 653.12
  Q 1154.36 649.31 1157.03 645.65
  Q 1157.32 645.25 1157.10 644.80
  Q 1156.76 644.10 1156.14 643.53
  L 1181.61 644.08
  A 0.98 0.95 -71.5 0 0 1182.42 643.66
  L 1183.95 641.46
  Z"
/>
<path fill="#254e9e" d="
  M 711.42 643.79
  L 711.45 658.36
  Q 711.45 658.90 711.96 659.04
  L 713.06 659.34
  Q 712.26 659.94 711.31 659.47
  Q 711.13 659.39 710.93 659.43
  Q 710.79 659.46 710.67 659.54
  Q 710.28 659.80 709.80 659.79
  Q 706.27 659.71 701.76 659.95
  Q 698.49 660.12 686.82 659.63
  Q 686.19 659.60 685.87 660.16
  Q 685.73 660.42 685.53 660.23
  Q 685.23 659.95 685.00 659.59
  Q 684.69 659.09 684.18 659.03
  L 684.15 643.47
  Q 684.27 643.25 684.31 643.00
  Q 684.42 642.31 684.68 642.95
  Q 684.70 642.99 684.70 643.04
  Q 684.72 643.33 685.00 643.28
  Q 685.22 643.25 685.38 643.10
  Q 685.69 642.81 686.11 642.88
  Q 694.94 644.50 703.86 643.62
  Q 704.04 643.60 704.08 643.43
  Q 704.13 643.15 704.40 643.09
  Q 710.40 641.68 711.42 643.79
  Z"
/>
<path fill="#254e9e" d="
  M 837.51 644.36
  L 842.78 650.34
  A 2.07 2.07 0.0 0 0 844.35 651.06
  L 909.55 651.06
  A 2.90 2.90 0.0 0 1 911.87 652.22
  L 924.96 669.70
  Q 924.68 669.73 924.62 670.02
  Q 924.49 670.71 924.12 670.12
  Q 924.00 669.93 923.77 669.91
  A 0.41 0.40 5.9 0 1 923.39 669.45
  Q 923.47 668.90 922.97 668.58
  A 0.81 0.81 0.0 0 0 922.06 668.60
  Q 921.57 668.95 921.00 668.66
  Q 920.53 668.41 914.66 669.02
  Q 912.45 669.25 910.15 669.29
  Q 907.71 669.32 905.48 669.60
  Q 903.48 669.85 901.53 669.91
  Q 899.49 669.98 897.55 670.62
  Q 897.11 670.77 896.74 670.48
  Q 895.38 669.41 894.10 669.69
  L 827.78 669.72
  A 1.70 1.70 0.0 0 1 826.42 669.04
  Q 817.21 656.78 807.52 643.52
  Q 807.38 643.32 807.46 643.09
  Q 807.57 642.75 808.01 642.17
  Q 813.21 644.36 815.75 644.63
  Q 826.64 645.82 837.51 644.36
  Z"
/>
<path fill="#254e9e" d="
  M 972.51 644.16
  L 972.70 659.32
  Q 966.50 659.75 960.00 659.56
  Q 959.43 659.55 958.90 659.75
  Q 958.43 659.93 957.94 659.88
  Q 952.97 659.35 947.98 659.18
  Q 946.36 659.12 945.89 660.00
  Q 945.40 660.89 945.33 662.57
  L 945.34 647.19
  Q 945.28 646.02 947.12 645.62
  Q 948.09 645.41 949.25 645.59
  Q 959.89 647.20 970.76 645.97
  Q 971.23 645.91 971.51 645.53
  L 972.51 644.16
  Z"
/>
<path fill="#254e9e" d="
  M 792.19 646.93
  L 792.18 661.38
  Q 790.91 659.56 788.35 659.91
  Q 784.90 660.39 784.58 660.38
  Q 770.88 660.35 757.14 659.45
  L 764.06 659.08
  Q 764.57 659.05 764.58 658.54
  L 764.73 646.94
  Q 766.43 646.87 767.88 646.75
  Q 769.03 646.65 769.65 646.76
  Q 770.52 646.91 770.62 646.91
  Q 779.69 646.83 788.74 646.00
  Q 788.96 645.98 789.03 646.18
  Q 789.11 646.40 789.32 646.32
  Q 791.43 645.42 792.19 646.93
  Z"
/>
<path fill="#1d398f" d="
  M 610.18 650.16
  Q 610.77 651.68 611.97 651.44
  C 612.72 651.29 613.57 651.06 614.31 651.24
  Q 616.30 651.70 618.39 651.92
  Q 624.96 652.61 630.77 652.11
  Q 630.84 652.10 632.65 651.59
  Q 634.14 651.17 635.54 652.58
  L 605.89 693.37
  A 1.69 1.67 17.8 0 1 604.53 694.06
  L 588.79 694.03
  A 1.48 1.47 -18.0 0 1 587.60 693.43
  L 564.54 661.64
  Q 566.59 661.32 568.44 661.77
  Q 570.82 662.34 572.15 662.34
  Q 574.21 662.32 576.25 662.59
  Q 579.99 663.09 591.02 660.67
  L 596.37 668.03
  A 0.54 0.54 0.0 0 0 597.24 668.03
  L 610.18 650.16
  Z"
/>
<path fill="#1d398f" d="
  M 665.70 652.25
  L 665.69 704.15
  Q 665.69 705.07 664.77 705.07
  L 638.79 705.06
  A 0.36 0.36 0.0 0 1 638.43 704.70
  L 638.45 651.79
  Q 651.93 653.20 665.70 652.25
  Z"
/>
<path fill="#1d398f" d="
  M 1053.46 653.13
  L 1053.46 704.52
  A 0.56 0.56 0.0 0 1 1052.90 705.08
  L 1026.49 705.03
  A 0.54 0.54 0.0 0 1 1025.95 704.49
  L 1025.99 680.21
  Q 1025.99 679.67 1025.46 679.67
  L 973.08 679.69
  Q 972.50 679.69 972.50 680.28
  L 972.50 704.27
  A 1.47 1.47 0.0 0 1 971.75 705.55
  L 946.19 719.96
  A 0.58 0.58 0.0 0 1 945.33 719.45
  L 945.33 662.57
  Q 945.40 660.89 945.89 660.00
  Q 946.36 659.12 947.98 659.18
  Q 952.97 659.35 957.94 659.88
  Q 958.43 659.93 958.90 659.75
  Q 959.43 659.55 960.00 659.56
  Q 966.50 659.75 972.70 659.32
  L 1025.04 659.26
  A 0.85 0.85 0.0 0 0 1025.89 658.41
  L 1025.88 653.64
  Q 1028.55 652.95 1031.16 653.19
  Q 1035.91 653.64 1036.36 653.63
  Q 1041.28 653.52 1046.18 653.11
  Q 1046.63 653.08 1049.77 652.50
  Q 1052.37 652.03 1053.46 653.13
  Z"
/>
<path fill="#1d398f" d="
  M 684.18 659.03
  Q 684.69 659.09 685.00 659.59
  Q 685.23 659.95 685.53 660.23
  Q 685.73 660.42 685.87 660.16
  Q 686.19 659.60 686.82 659.63
  Q 698.49 660.12 701.76 659.95
  Q 706.27 659.71 709.80 659.79
  Q 710.28 659.80 710.67 659.54
  Q 710.79 659.46 710.93 659.43
  Q 711.13 659.39 711.31 659.47
  Q 712.26 659.94 713.06 659.34
  L 757.14 659.45
  Q 770.88 660.35 784.58 660.38
  Q 784.90 660.39 788.35 659.91
  Q 790.91 659.56 792.18 661.38
  L 792.15 704.48
  A 0.59 0.59 0.0 0 1 791.56 705.07
  L 765.27 705.03
  A 0.52 0.51 -0.0 0 1 764.75 704.52
  L 764.78 680.21
  A 0.57 0.57 0.0 0 0 764.21 679.64
  L 711.74 679.68
  A 0.40 0.39 90.0 0 0 711.35 680.08
  L 711.37 704.28
  A 1.34 1.33 -15.2 0 1 710.69 705.46
  L 684.99 720.03
  A 0.55 0.55 0.0 0 1 684.17 719.55
  L 684.18 659.03
  Z"
/>
<path fill="#1d398f" d="
  M 555.21 667.72
  L 555.22 704.15
  A 1.32 1.32 0.0 0 1 554.55 705.30
  L 529.39 719.68
  A 0.41 0.41 0.0 0 1 528.78 719.32
  L 528.78 666.90
  Q 531.48 666.25 532.25 666.39
  Q 534.69 666.83 536.94 667.03
  Q 540.77 667.38 549.79 666.82
  Q 550.67 666.76 551.63 666.48
  Q 552.51 666.23 553.45 666.01
  Q 555.08 665.63 555.21 667.72
  Z"
/>
<path fill="#1d398f" d="
  M 924.96 669.70
  L 930.39 676.82
  A 1.07 1.07 0.0 0 1 930.40 678.11
  L 911.23 703.98
  Q 910.40 705.10 909.00 705.10
  L 807.81 705.06
  A 0.26 0.26 0.0 0 1 807.57 704.71
  Q 807.78 704.17 808.18 703.77
  Q 817.39 694.43 825.82 685.91
  A 4.29 4.29 0.0 0 1 828.90 684.63
  Q 861.11 684.73 891.50 684.63
  C 893.11 684.62 894.53 684.67 895.71 683.37
  Q 898.22 680.64 900.41 677.98
  Q 900.82 677.49 900.39 677.00
  L 894.10 669.69
  Q 895.38 669.41 896.74 670.48
  Q 897.11 670.77 897.55 670.62
  Q 899.49 669.98 901.53 669.91
  Q 903.48 669.85 905.48 669.60
  Q 907.71 669.32 910.15 669.29
  Q 912.45 669.25 914.66 669.02
  Q 920.53 668.41 921.00 668.66
  Q 921.57 668.95 922.06 668.60
  A 0.81 0.81 0.0 0 1 922.97 668.58
  Q 923.47 668.90 923.39 669.45
  A 0.41 0.40 5.9 0 0 923.77 669.91
  Q 924.00 669.93 924.12 670.12
  Q 924.49 670.71 924.62 670.02
  Q 924.68 669.73 924.96 669.70
  Z"
/>
<path fill="#1d398f" d="
  M 531.55 760.34
  Q 536.53 762.05 541.23 764.02
  Q 542.88 764.71 543.01 766.41
  A 1.09 1.08 70.3 0 1 542.57 767.36
  Q 541.01 768.50 539.35 768.49
  Q 506.34 768.31 472.90 768.88
  Q 463.78 769.04 452.99 769.00
  Q 407.40 768.86 363.25 768.67
  Q 356.48 768.64 350.48 768.67
  Q 333.19 768.73 315.73 768.84
  Q 301.20 768.93 287.50 768.75
  Q 284.50 768.71 281.50 768.72
  Q 241.78 768.88 205.00 768.89
  C 199.83 768.89 194.66 768.46 189.60 768.68
  C 183.95 768.93 178.35 768.58 172.59 768.74
  Q 168.60 768.84 163.25 768.80
  C 140.00 768.60 117.20 768.45 94.56 768.21
  Q 93.18 768.19 92.20 766.66
  A 0.95 0.95 0.0 0 1 92.33 765.47
  Q 93.62 764.20 95.44 763.49
  Q 105.95 759.39 112.49 757.53
  C 119.70 755.47 126.45 752.51 133.24 750.66
  Q 161.39 743.02 189.94 737.09
  C 200.84 734.83 212.36 733.36 223.37 731.44
  C 229.97 730.30 236.55 730.28 242.99 729.35
  C 250.97 728.20 259.02 727.98 267.23 727.28
  C 287.87 725.53 308.22 725.76 329.10 725.72
  C 341.04 725.70 353.04 726.26 364.84 726.92
  C 368.39 727.12 371.88 727.77 375.44 727.87
  Q 383.58 728.08 391.68 729.12
  Q 397.27 729.84 402.85 730.32
  Q 408.05 730.76 414.06 731.70
  Q 428.82 734.02 443.93 736.65
  Q 453.51 738.32 463.52 740.62
  Q 486.43 745.87 504.73 751.56
  Q 518.13 755.73 531.55 760.34
  Z"
/>
<path fill="#6a6a6d" d="
  M 689.47 758.03
  L 701.60 768.44
  Q 702.78 769.45 701.23 769.42
  L 695.93 769.32
  Q 694.35 769.29 693.22 768.18
  L 682.83 757.99
  A 1.65 1.64 67.1 0 0 681.68 757.52
  L 674.29 757.48
  A 0.73 0.72 -0.4 0 0 673.56 758.21
  L 673.64 768.71
  A 0.61 0.61 0.0 0 1 673.04 769.32
  L 668.68 769.37
  Q 668.05 769.37 668.05 768.75
  L 668.01 739.21
  Q 668.01 738.54 668.69 738.53
  Q 684.23 738.42 694.38 738.60
  Q 699.08 738.68 699.45 744.01
  Q 699.81 749.20 699.31 753.23
  C 698.71 758.00 693.41 757.66 689.71 757.45
  Q 688.73 757.39 689.47 758.03
  Z
  M 673.58 743.47
  L 673.54 752.53
  A 0.57 0.57 0.0 0 0 674.11 753.11
  L 691.19 753.17
  A 2.81 2.45 0.2 0 0 694.01 750.73
  L 694.03 745.43
  A 2.81 2.45 0.2 0 0 691.23 742.97
  L 674.15 742.91
  A 0.57 0.57 0.0 0 0 673.58 743.47
  Z"
/>
<path fill="#6a6a6d" d="
  M 718.72 756.26
  L 718.76 764.74
  A 0.58 0.58 0.0 0 0 719.34 765.32
  L 742.88 765.27
  A 0.58 0.58 0.0 0 1 743.46 765.85
  L 743.46 768.70
  A 0.58 0.58 0.0 0 1 742.88 769.28
  L 713.97 769.28
  A 0.58 0.58 0.0 0 1 713.39 768.70
  L 713.47 739.11
  A 0.58 0.58 0.0 0 1 714.05 738.53
  L 742.69 738.61
  A 0.58 0.58 0.0 0 1 743.27 739.20
  L 743.22 742.30
  A 0.58 0.58 0.0 0 1 742.64 742.87
  L 719.29 742.83
  A 0.58 0.58 0.0 0 0 718.71 743.42
  L 718.79 750.58
  A 0.58 0.58 0.0 0 0 719.37 751.16
  L 733.28 751.28
  A 0.58 0.58 0.0 0 1 733.85 751.84
  L 733.99 754.89
  A 0.58 0.58 0.0 0 1 733.42 755.50
  L 719.30 755.67
  A 0.58 0.58 0.0 0 0 718.72 756.26
  Z"
/>
<path fill="#6a6a6d" d="
  M 758.60 762.76
  L 755.23 769.13
  A 0.51 0.51 0.0 0 1 754.77 769.40
  L 750.35 769.33
  A 0.51 0.51 0.0 0 1 749.91 768.58
  L 766.08 738.81
  A 0.51 0.51 0.0 0 1 766.52 738.54
  L 771.66 738.44
  A 0.51 0.51 0.0 0 1 772.12 738.70
  L 788.62 768.66
  A 0.51 0.51 0.0 0 1 788.16 769.42
  L 783.22 769.35
  A 0.51 0.51 0.0 0 1 782.78 769.09
  L 779.30 762.77
  A 0.51 0.51 0.0 0 0 778.85 762.51
  L 759.05 762.49
  A 0.51 0.51 0.0 0 0 758.60 762.76
  Z
  M 761.32 757.52
  A 0.32 0.32 0.0 0 0 761.60 757.99
  L 776.35 757.96
  A 0.32 0.32 0.0 0 0 776.64 757.49
  L 769.24 743.24
  A 0.32 0.32 0.0 0 0 768.67 743.24
  L 761.32 757.52
  Z"
/>
<path fill="#6a6a6d" d="
  M 827.26 766.05
  L 827.06 768.69
  A 0.51 0.51 0.0 0 1 826.55 769.16
  L 799.00 769.34
  A 0.51 0.51 0.0 0 1 798.49 768.83
  L 798.48 739.00
  A 0.51 0.51 0.0 0 1 798.99 738.49
  L 803.52 738.50
  A 0.51 0.51 0.0 0 1 804.03 739.01
  L 804.05 764.73
  A 0.51 0.51 0.0 0 0 804.55 765.24
  L 826.76 765.50
  A 0.51 0.51 0.0 0 1 827.26 766.05
  Z"
/>
<path fill="#6a6a6d" d="
  M 864.68 756.36
  L 864.74 764.67
  A 0.67 0.67 0.0 0 0 865.41 765.33
  L 888.60 765.32
  A 0.67 0.67 0.0 0 1 889.27 765.99
  L 889.27 768.57
  A 0.67 0.67 0.0 0 1 888.60 769.24
  L 859.74 769.32
  A 0.67 0.67 0.0 0 1 859.07 768.65
  L 859.11 739.30
  A 0.67 0.67 0.0 0 1 859.78 738.63
  L 888.33 738.56
  A 0.67 0.67 0.0 0 1 889.00 739.20
  L 889.14 742.19
  A 0.67 0.67 0.0 0 1 888.47 742.89
  L 865.28 742.82
  A 0.67 0.67 0.0 0 0 864.61 743.51
  L 864.77 750.57
  A 0.67 0.67 0.0 0 0 865.44 751.22
  L 878.83 751.24
  A 0.67 0.67 0.0 0 1 879.50 751.90
  L 879.54 754.88
  A 0.67 0.67 0.0 0 1 878.88 755.56
  L 865.34 755.68
  A 0.67 0.67 0.0 0 0 864.68 756.36
  Z"
/>
<path fill="#6a6a6d" d="
  M 906.37 742.96
  Q 905.71 742.96 905.69 743.63
  L 905.52 750.69
  A 0.77 0.77 0.0 0 0 906.28 751.48
  Q 915.11 751.54 924.45 751.49
  C 927.47 751.48 931.19 752.34 931.73 755.83
  C 932.23 759.02 933.39 769.23 927.72 769.26
  Q 915.28 769.31 903.92 769.25
  C 900.23 769.24 899.43 765.53 899.49 762.59
  Q 899.51 761.44 900.62 761.13
  L 903.21 760.40
  Q 904.62 760.01 904.57 761.47
  L 904.45 764.60
  Q 904.43 765.28 905.10 765.28
  L 926.49 765.28
  Q 927.01 765.29 927.01 764.76
  L 927.00 756.82
  A 0.75 0.75 0.0 0 0 926.26 756.08
  Q 917.05 756.04 907.79 756.20
  C 905.17 756.24 901.79 755.57 901.21 752.48
  Q 900.43 748.36 900.83 743.62
  Q 901.26 738.67 906.41 738.57
  Q 915.93 738.40 925.79 738.58
  Q 931.59 738.69 931.76 744.95
  A 1.38 1.37 -17.3 0 1 931.13 746.14
  Q 929.70 747.04 927.79 747.35
  Q 926.51 747.56 926.56 746.25
  L 926.67 743.68
  Q 926.70 742.95 925.97 742.95
  L 906.37 742.96
  Z"
/>
<path fill="#6a6a6d" d="
  M 953.67 742.97
  L 940.67 743.00
  A 0.57 0.57 0.0 0 1 940.10 742.42
  L 940.14 739.07
  A 0.57 0.57 0.0 0 1 940.71 738.51
  L 973.19 738.50
  A 0.57 0.57 0.0 0 1 973.76 739.07
  L 973.75 742.42
  A 0.57 0.57 0.0 0 1 973.18 742.99
  L 960.06 742.96
  A 0.57 0.57 0.0 0 0 959.49 743.53
  L 959.62 768.78
  A 0.57 0.57 0.0 0 1 959.06 769.35
  L 954.78 769.42
  A 0.57 0.57 0.0 0 1 954.20 768.85
  L 954.24 743.54
  A 0.57 0.57 0.0 0 0 953.67 742.97
  Z"
/>
<path fill="#6a6a6d" d="
  M 1000.74 762.50
  L 980.82 762.48
  A 0.49 0.49 0.0 0 0 980.39 762.74
  L 976.96 769.13
  A 0.49 0.49 0.0 0 1 976.53 769.39
  L 972.05 769.36
  A 0.49 0.49 0.0 0 1 971.62 768.64
  L 987.96 738.71
  A 0.49 0.49 0.0 0 1 988.39 738.45
  L 993.50 738.50
  A 0.49 0.49 0.0 0 1 993.93 738.75
  L 1010.37 768.67
  A 0.49 0.49 0.0 0 1 1009.94 769.39
  L 1004.83 769.36
  A 0.49 0.49 0.0 0 1 1004.39 769.09
  L 1001.18 762.77
  A 0.49 0.49 0.0 0 0 1000.74 762.50
  Z
  M 983.14 757.55
  A 0.32 0.32 0.0 0 0 983.43 758.02
  L 998.17 757.99
  A 0.32 0.32 0.0 0 0 998.45 757.52
  L 991.06 743.27
  A 0.32 0.32 0.0 0 0 990.49 743.27
  L 983.14 757.55
  Z"
/>
<path fill="#6a6a6d" d="
  M 1022.33 742.97
  L 1009.63 743.01
  A 0.59 0.59 0.0 0 1 1009.03 742.42
  L 1009.01 739.07
  A 0.59 0.59 0.0 0 1 1009.60 738.47
  L 1041.86 738.61
  A 0.59 0.59 0.0 0 1 1042.44 739.17
  L 1042.56 742.08
  A 0.59 0.59 0.0 0 1 1041.98 742.69
  L 1029.02 742.98
  A 0.59 0.59 0.0 0 0 1028.44 743.57
  L 1028.55 768.74
  A 0.59 0.59 0.0 0 1 1027.96 769.33
  L 1023.46 769.36
  A 0.59 0.59 0.0 0 1 1022.87 768.77
  L 1022.92 743.56
  A 0.59 0.59 0.0 0 0 1022.33 742.97
  Z"
/>
<path fill="#6a6a6d" d="
  M 1055.71 743.78
  L 1056.10 750.47
  A 0.79 0.79 0.0 0 0 1056.87 751.21
  L 1070.00 751.48
  A 0.79 0.79 0.0 0 1 1070.77 752.22
  L 1070.90 754.51
  A 0.79 0.79 0.0 0 1 1070.12 755.34
  L 1056.71 755.64
  A 0.79 0.79 0.0 0 0 1055.94 756.45
  L 1056.09 764.46
  A 0.79 0.79 0.0 0 0 1056.87 765.24
  L 1079.92 765.70
  A 0.79 0.79 0.0 0 1 1080.70 766.42
  L 1080.84 768.24
  A 0.79 0.79 0.0 0 1 1080.06 769.09
  L 1051.54 769.46
  A 0.79 0.79 0.0 0 1 1050.74 768.67
  L 1050.64 739.45
  A 0.79 0.79 0.0 0 1 1051.43 738.66
  L 1079.66 738.67
  A 0.79 0.79 0.0 0 1 1080.45 739.42
  L 1080.58 741.86
  A 0.79 0.79 0.0 0 1 1079.80 742.69
  L 1056.49 742.94
  A 0.79 0.79 0.0 0 0 1055.71 743.78
  Z"
/>
<path fill="#ffffff" d="
  M 673.58 743.47
  A 0.57 0.57 0.0 0 1 674.15 742.91
  L 691.23 742.97
  A 2.81 2.45 0.2 0 1 694.03 745.43
  L 694.01 750.73
  A 2.81 2.45 0.2 0 1 691.19 753.17
  L 674.11 753.11
  A 0.57 0.57 0.0 0 1 673.54 752.53
  L 673.58 743.47
  Z"
/>
<path fill="#ffffff" d="
  M 761.32 757.52
  L 768.67 743.24
  A 0.32 0.32 0.0 0 1 769.24 743.24
  L 776.64 757.49
  A 0.32 0.32 0.0 0 1 776.35 757.96
  L 761.60 757.99
  A 0.32 0.32 0.0 0 1 761.32 757.52
  Z"
/>
<path fill="#ffffff" d="
  M 983.14 757.55
  L 990.49 743.27
  A 0.32 0.32 0.0 0 1 991.06 743.27
  L 998.45 757.52
  A 0.32 0.32 0.0 0 1 998.17 757.99
  L 983.43 758.02
  A 0.32 0.32 0.0 0 1 983.14 757.55
  Z"
/>
</svg>
